/* XPM */
static char *apple_48[] = {
/* columns rows colors chars-per-pixel */
"48 48 79 1 ",
"  c None",
". c #36031E",
"X c #2C1416",
"o c #3B1E11",
"O c #3A1F11",
"+ c #100120",
"@ c #3B0B28",
"# c #49041E",
"$ c #52031C",
"% c #5B021A",
"& c #511015",
"* c #69021A",
"= c #780318",
"- c #7C021E",
"; c #452C12",
": c #542A1F",
"> c #653B02",
", c #633C01",
"< c #4D0A25",
"1 c #51102C",
"2 c #411332",
"3 c #551634",
"4 c #591D3B",
"5 c #761E3A",
"6 c #544312",
"7 c #574512",
"8 c #6F4903",
"9 c #795603",
"0 c #7D5C03",
"q c #645A12",
"w c #82061B",
"e c #8B0519",
"r c #940517",
"t c #9B0517",
"y c #A60313",
"u c #A40415",
"i c #AD0313",
"p c #A20518",
"a c #B40314",
"s c #8A122A",
"d c #931228",
"f c #841C35",
"g c #921E38",
"h c #921F39",
"j c #BD1E32",
"k c #952C3D",
"l c #BC2A3F",
"z c #C10314",
"x c #C70317",
"c c #CB0316",
"v c #CD0317",
"b c #D40318",
"n c #DE0319",
"m c #E7031B",
"M c #C11F2F",
"N c #DD1D2F",
"B c #E21025",
"V c #F01D32",
"C c #8C6F04",
"Z c #862A40",
"A c #9A2B47",
"S c #88384C",
"D c #A23856",
"F c #E03946",
"G c #F83649",
"H c #DC4654",
"J c #C1565F",
"K c #F64554",
"L c #E0545C",
"P c #F2535E",
"I c #FC5360",
"U c #FC6E76",
"Y c #FF6F77",
"T c #998504",
"R c #9E8804",
"E c #B8B304",
"W c #F48989",
"Q c #FFA5A3",
"! c #F0DBC9",
/* pixels */
"                                                ",
"                                                ",
"                                                ",
"                                                ",
"                                                ",
"                                                ",
"                                                ",
"                                                ",
"                                                ",
"                                                ",
"                                                ",
"                                                ",
"                                                ",
"                                                ",
"                                                ",
"                                                ",
"                                                ",
"                                                ",
"                 +                              ",
"                                                ",
"                  +                             ",
"           ++++   +                             ",
"          XO;7q                                 ",
"         +O>9TE+++                              ",
"   +    +>89R7+>O++++                           ",
"       XO80C7:1O&*fZS                           ",
"     ++O>9CR+1g+*zGIU+                          ",
"        ++++wpzw#+wjGUS+                        ",
"       .#%$#pMFJk*jHUIl-                        ",
"      +#wyrwzFUQLzGUQGVm+                       ",
"      +1gwpzGVmGUQ!WGmbz+                       ",
"      +3AwtaNBmVKUWPVmva+                       ",
"      +4DwryzbmmVGGVmmzy+                       ",
"      +4Dwryyazmmmmbzyrw+                       ",
"       24gdryiabnmbvzy=#                        ",
"        +Dgwyyyzbmzzzy%+                        ",
"        +Dgwwryyazyyyw#+                        ",
"         45gwerryaaiy#.                         ",
"         +4Dwwwwryzay+                          ",
"         +1ggsw+1gyrw+                          ",
"          @11<# @1%$#                           ",
"           ++++  ++++                           ",
"                                                ",
"                                                ",
"                                                ",
"                                                ",
"                                                ",
"                                                "
};
