/* XPM */
static char *blue_96[] = {
/* columns rows colors chars-per-pixel */
"96 96 6 1 ",
"  c #86C7E7",
". c #86C8E7",
"X c #86C7E8",
"o c #86C8E8",
"O c #87C8E8",
"+ c #87C8E9",
/* pixels */
"XXXXXXXXXXXXXXXXXXXXXX+++++++++++++++++++++++++++++++.................XXXXXXXX++++++++++++++++XX",
"XXXXXXXXXXXXXXXXXXXXXX+++++++++++++++++++++++++++++++................. XXXXXXX++++++++++++++++XX",
"XXXXXXXXXXXXXXXXXXXXXX+++++++++++++++++++++++++++++++................. XXXXXXX++++++++++++++++XX",
"XXXXXXXXXXXXXXXXXXXXXX+++++++++++++++++++++++++++++++................. XXXXXXX++++++++++++++++XX",
"XXXXXXXXXXXXXXXXXXXXXX+++++++++++++++++++++++++++++++................. XXXXXXX++++++++++++++++XX",
"XXXXXXXXXXXXXXXXXXXXXX+++++++++++++++++++++++++++++++................. XXXXXXX++++++++++++++++XX",
"XXXXXXXXXXXXXXXXXXXXXX+++++++++++++++++++++++++++++++................. XXXXXXX++++++++++++++++XX",
"XXXXXX++++++++XXXXXXXX++++++++XXXXXXXXXXXXXXXX+++++++.................++++++++XXXXXXXX++++++++XX",
"XXXXXX++++++++XXXXXXXX++++++++XXXXXXXXXXXXXXXX+++++++.................++++++++XXXXXXXX++++++++XX",
"XXXXXX++++++++XXXXXXXX++++++++XXXXXXXXXXXXXXXX+++++++.................++++++++XXXXXXXX++++++++XX",
"XXXXXX++++++++XXXXXXXX++++++++XXXXXXXXXXXXXXXX+++++++..................+++++++XXXXXXXX++++++++XX",
"XXXXXX++++++++XXXXXXXX++++++++XXXXXXXXXXXXXXXX+++++++.................++++++++XXXXXXXX++++++++XX",
"XXXXXX++++++++XXXXXXXX++++++++XXXX XXXXXXXXXXX+++++++.................++++++++XXXXXXXX++++++++XX",
"XXXXXX++++++++XXXXXXXX++++++++XXXX  XXXXXXXXXX+++++++.................++++++++XXXXXXXX++++++++XX",
"+.X...+++++.++X. . ...+.+.+++. .X.X. XXXXXXXXX++++++++................++++++++XXXXXXXX++++++++XX",
"......................................++++++++XXXXXXXX+++.+.+. . .X.  XXXXXXXXXXXXXXXXXXXXXXXXXX",
"......................................++++++++XXXXXXXX++++++++XXXXXXXXXXXXXXXXXXXXXXXXXXXXXXXXXX",
"......................................++++++++XXXXXXXX++++++++XXXXXXXXXXXXXXXXXXXXXXXXXXXXXXXXXX",
"......................................++++++++XXXXXXXX++++++++XXXXXXXXXXXXXXXXXXXXXXXXXXXXXXXXXX",
"......................................++++++++XXXXXXXX++++++++XXXXXXXXXXXXXXXXXXXXXXXXXXXXXXXXXX",
"......................................++++++++XXXXXXXX++++++++XXXXXXXXXXXXXXXXXXXXXXXXXXXXXXXXXX",
"......................................++++++++XXXXXXXX++++++++XXXXXXXXXXXXXXXXXXXXXXXXXXXXXXXXXX",
"......................................++++++++XXXXXXXX++++++++XXXXXXXXXXXXXXXXXXXXXXXXXXXXXXXXXX",
"......................................XXXXXXXX++++++++++++++++XXXXXXXXXXXXXXXX++++++++++++++++XX",
"......................................  XXXXXX++++++++++++++++XXXXXXXXXXXXXXXX++++++++++++++++XX",
"......................................  XXXXXX++++++++++++++++XXXXXXXXXXXXXXXX++++++++++++++++XX",
"...................................... XXXXXXX++++++++++++++++XXXXXXXXXXXXXXXX++++++++++++++++XX",
"......................................XXXXXXXX++++++++++++++++XXXXXXXXXXXXXXXX++++++++++++++++XX",
"......................................  XXXXXX++++++++++++++++XXXXXXXXXXXXXXXX++++++++++++++++XX",
"......................................  X XXXX++++++++++++++++XXXXXXXXXXXXXXXX++++++++++++++++XX",
"........................................ . . .+.+++++.+.+++.++X...X. ...+.X.....+++.++++++++++XX",
" . . . . . . . . . . ...+.+++. . . . .................................................XXXXXXXX++",
"XXXXXXXXXXXXXXXXXXXXXX++++++++XX  XX .................................................  XXXXXX++",
"XXXXXXXXXXXXXXXXXXXXXX++++++++XXXXXXX.................................................  XXXXXX++",
"XXXXXXXXXXXXXXXXXXXXXX++++++++XXXXXX ................................................. XXXXXXX++",
"XXXXXXXXXXXXXXXXXXXXXX++++++++XXXXXX .................................................XXXXXXXX++",
"XXXXXXXXXXXXXXXXXXXXXX++++++++XXXXXX .................................................  XXXXXX++",
"XXXXXXXXXXXXXXXXXXXXXX++++++++XXXXXX .................................................  XXXXXX++",
"XXXXXXXXXXXXXXXXXXXXXX++++++++XXXXXX .................................................XXXXXXXX++",
"XXXXXXXXXXXXXXXXXXXXXX++++++++XXXXX  ................................................. XXXXXXX++",
"XXXXXXXXXXXXXXXXXXXXXX++++++++XXXXXX .................................................  XXXXXX++",
"XXXXXXXXXXXXXXXXXXXXXX++++++++XXXXXX .................................................  XXXXXX++",
"XXXXXXXXXXXXXXXXXXXXXX++++++++XXXXXX .................................................XXXXXXXX++",
"XXXXXXXXXXXXXXXXXXXXXX++++++++XXXXXXX................................................. XXXXXXX++",
"XXXXXXXXXXXXXXXXXXXXXX++++++++XXXXXXX................................................. XXXXXXX++",
"XXXXXXXXXXXXXXXXXXXXXX++++++++XXXXXXX.................................................  XXXXXX++",
"XXXXXXXXXXXXXXXXXXXXXX++++++++XXXXXXX...................................................X.+...++",
"XXXXXXXXXXXXXX++++++++XXXXXXXXXXXXXX ................................... ... .X. . . ...........",
"XXXXXXXXXXXXXX++++++++XXXXXXXXXXXXXX ................................. XXXXXXXXXXXXX ...........",
"XXXXXXXXXXXXXX++++++++XXXXXXXXXXXXXXX................................. XXXXXXXXXXXXXX...........",
"XXXXXXXXXXXXXX++++++++XXXXXXXXXXXXXXX................................. XXXXXXXXXXXXX ...........",
"XXXXXXXXXXXXXX++++++++XXXXXXXXXXXXXX .................................  XXXXXXXXXXXXX...........",
"XXXXXXXXXXXXXX++++++++XXXXXXXXXXXXXXX................................. XXXXXXXXXXXXXX...........",
"XXXXXXXXXXXXXX++++++++XXXXXXXXXXXXXX .................................XXXXXXXXXXXXXXX...........",
"XXXXXXXXXXXXXX++++++++XXXXXXXXXXXXXX .................................XXXXXXXXXXXXXX ...........",
"XXXXXXXXXXXXXX++++++++++++++++XXXXXX ................................. XXXXXXXXXXXXX ...........",
"XXXXXXXXXXXXXX++++++++++++++++XXXXXXX.................................XXXXXXXXXXXXXXX...........",
"XXXXXXXXXXXXXX++++++++++++++++XXXXXXX.................................XXXXXXXXXXXXXXX...........",
"XXXXXXXXXXXXXX++++++++++++++++XXXXXX ................................. XXXXXXXXXXXXX ...........",
"XXXXXXXXXXXXXX++++++++++++++++XXXXXX .................................  XXXXXXXXXXXX ...........",
"XXXXXXXXXXXXXX++++++++++++++++XXXXXX .................................XXXXXXXXXXXXXX ...........",
"XXXXXXXXXXXXXX++++++++++++++++XXXXXX ................................. XXXXXXXXXXXXX ...........",
"XXXXXXXXXXXXXX++++++++++++++++XXXXXX .................................XXXXXXXXXXXXXX ...........",
"XXXXXXXXXXXXXX++++++++XXXXXXXXXXXXX  .................................+++++++++++++++...........",
"XXXXXXXXXXXXXX++++++++XXXXXXXXXXXXXXX.................................+++++++++++++++...........",
"XXXXXXXXXXXXXX++++++++XXXXXXXXXXXXXXX.................................+++++++++++++++...........",
"XXXXXXXXXXXXXX++++++++XXXXXXXXXXXXXX .................................+++++++++++++++...........",
"XXXXXXXXXXXXXX++++++++XXXXXXXXXXXXXX .................................+++++++++++++++...........",
"XXXXXXXXXXXXXX++++++++XXXXXXXXXXXXXX .................................+++++++++++++++...........",
"XXXXXXXXXXXXXX++++++++XXXXXXXXXXXXXX .................................+++++++++++++++...........",
"XXXXXXXXXXXXXX++++++++XXXXXXXXXXXXXX .................................+++++++++++++++...........",
"++++++XXXXXXXXXXXXXXXXXXXXXXXXXXXXXXX................................. XXXXXXXXXXXXXX...........",
"++++++XXXXXXXXXXXXXXXXXXXXXXXXXXXXXXX.................................  XXXXXXXXXXXX ...........",
"++++++XXXXXXXXXXXXXXXXXXXXXXXXXXXXXXX.................................  XXXXXXXXXXXX ...........",
"++++++XXXXXXXXXXXXXXXXXXXXXXXXXXXXXX .................................XXXXXXXXXXXXXX ...........",
"++++++XXXXXXXXXXXXXXXXXXXXXXXXXXXXXX ................................. XXXXXXXXXXXXX ...........",
"++++++XXXXXXXXXXXXXXXXXXXXXXXXXXXXXX .................................XXXXXXXXXXXXXX ...........",
"++++++XXXXXXXXXXXXXXXXXXXXXXXXXXXXXX .................................XXXXXXXXXXXXXXX...........",
"++++++XXXXXXXXXXXXXXXXXXXXXXXXXXXXXX X................................ XXXXXXXXXXXXXXX..........",
"XXXXXX++++++++XXXXXXXXXXXXXXXX+++++++++.+.+.++X. . . . ... . .X. . .  ++++++++++++++++ . . . . .",
"XXXXXX++++++++XXXXXXXXXXXXXXXX++++++++++++++++XXXXXXXXXXXXXXXXXXXXXXXX++++++++++++++++XXXXXXXXXX",
"XXXXXX++++++++XXXXXXXXXXXXXXXX++++++++++++++++XXXXXXXXXXXXXXXXXXXXXXXX++++++++++++++++XXXXXXXXXX",
"XXXXXX++++++++XXXXXXXXXXXXXXXX++++++++++++++++XXXXXXXXXXXXXXXXXXXXXXXX++++++++++++++++XXXXXXXXXX",
"XXXXXX++++++++XXXXXXXXXXXXXXXX++++++++++++++++XXXXXXXXXXXXXXXXXXXXXXXX++++++++++++++++XXXXXXXXXX",
"XXXXXX++++++++XXXXXXXXXXXXXXXX++++++++++++++++XXXXXXXXXXXXXXXXXXXXXXXX++++++++++++++++XXXXXXXXXX",
"XXXXXX++++++++XXXXXXXXXXXXXXXX++++++++++++++++XXXXXXXXXXXXXXXXXXXXXXXX++++++++++++++++XXXXXXXXXX",
"XXXXXX++++++++XXXXXXXXXXXXXXXX++++++++++++++++XXXXXXXXXXXXXXXXXXXXXXXX++++++++++++++++XXXXXXXXXX",
"++++++XXXXXXXXXXXXXXXXXXXXXXXX++++++++XXXXXXXX++++++++XXXXXXXXXXXXXXXXXXXXXXXXXXXXXXXXXXXXXXXXXX",
"++++++XXXXXXXXXXXXXXXXXXXXXXXX++++++++XXXXXXXX++++++++XXXXXXXXXXXXXXXXXXXXXXXXXXXXXXXXXXXXXXXXXX",
"++++++XXXXXXXXXXXXXXXXXXXXXXXX++++++++XXXXXXXX++++++++XXXXXXXXXXXXXXXXXXXXXXXXXXXXXXXXXXXXXXXXXX",
"++++++XXXXXXXXXXXXXXXXXXXXXXXX++++++++XXXXXXXX++++++++XXXXXXXXXXXXXXXXXXXXXXXXXXXXXXXXXXXXXXXXXX",
"++++++XXXXXXXXXXXXXXXXXXXXXXXX++++++++XXXXXXXX++++++++XXXXXXXXXXXXXXXXXXXXXXXXXXXXXXXXXXXXXXXXXX",
"++++++XXXXXXXXXXXXXXXXXXXXXXXX++++++++XXXXXXXX++++++++XXXXXXXXXXXXXXXXXXXXXXXXXXXXXXXXXXXXXXXXXX",
"++++++XXX XXXXX XXXXXXXXXXXXXX++++++++XXXXXXXX++++++++XXXXXXXXXXXXXXXXXXXXXXXXXXXXXXXXXXXXXXXXXX",
"++++++X. . . . . .X.XXXXXXXXXX++++++++XXXXXXXX++++++++XXXXXXXXXXXXXXXXXXXXXXXXXXXXXXXXXXXXXXXXXX",
"XXXXXX................XXXXXXXXXXXXXXXX++++++++++++++++XXXXXXXXXXXXXXXXXXXXXXXX++++++++XXXXXXXXXX"
};
