/* XPM */
static char *door_closed_96[] = {
/* columns rows colors chars-per-pixel */
"96 96 14 1 ",
"  c None",
". c #060608",
"X c #412320",
"o c #59302C",
"O c #6D3B36",
"+ c gray36",
"@ c #434F65",
"# c #9A544C",
"$ c #6F7F9F",
"% c gray55",
"& c #8895AF",
"* c gray68",
"= c #A6B0C4",
"- c white",
/* pixels */
"                                                                                                ",
"                                                                                                ",
"                                                                                                ",
"                                                                                                ",
"                                                                                                ",
"                                                                                                ",
"                                                                                                ",
"                                                                                                ",
"                                                                                                ",
"                                                                                                ",
"                                                                                                ",
"                                                                                                ",
"                                       &&&&&&&&&&&&&&&&&&                                       ",
"                                       &&&&&&&&&&&&&&&&&&                                       ",
"                                       &&&&&&&&&&&&&&&&&&                                       ",
"                                       &&&&&&&&&&&&&&&&&&                                       ",
"                                       &&&&&&&&&&&&&&&&&&                                       ",
"                                       &&&&&&&&&&&&&&&&&&                                       ",
"                     &&&&&&&&&&&&&&&@@@&&&&&&&&&&&&&&&&&&@@@&&&&&&&&&&&&&&&                     ",
"                     &&&&&&&&&&&&&&&@@@&&&&&&&&&&&&&&&&&&@@@&&&&&&&&&&&&&&&                     ",
"                     &&&&&&&&&&&&&&&@@@&&&&&&&&&&&&&&&&&&@@@&&&&&&&&&&&&&&&                     ",
"                     &&&&&&&&&&&&&&&@@@==================@@@&&&&&&&&&&&&&&&                     ",
"                     &&&&&&&&&&&&&&&@@@==================@@@&&&&&&&&&&&&&&&                     ",
"                     &&&&&&&&&&&&&&&@@@==================@@@&&&&&&&&&&&&&&&                     ",
"@@@&&&&&&&&&&&&&&&@@@&&&&&&&&&&&&&&&@@@$$$$$$$$$$$$$$$$$$@@@&&&&&&&&&&&&&&&@@@&&&&&&&&&&&&&&&@@@",
"@@@&&&&&&&&&&&&&&&@@@&&&&&&&&&&&&&&&@@@$$$$$$$$$$$$$$$$$$@@@&&&&&&&&&&&&&&&@@@&&&&&&&&&&&&&&&@@@",
"@@@&&&&&&&&&&&&&&&@@@&&&&&&&&&&&&&&&@@@$$$$$$$$$$$$$$$$$$@@@&&&&&&&&&&&&&&&@@@&&&&&&&&&&&&&&&@@@",
"@@@&&&&&&&&&&&&&&&@@@===============@@@$$$$$$$$$$$$$$$$$$@@@===============@@@&&&&&&&&&&&&&&&@@@",
"@@@&&&&&&&&&&&&&&&@@@===============@@@$$$$$$$$$$$$$$$$$$@@@===============@@@&&&&&&&&&&&&&&&@@@",
"@@@&&&&&&&&&&&&&&&@@@===============@@@$$$$$$$$$$$$$$$$$$@@@===============@@@&&&&&&&&&&&&&&&@@@",
"@@@&&&&&&&&&&&&&&&@@@$$$$$$$$$$$$$$$@@@$$$$$$$$$$$$$$$$$$@@@$$$$$$$$$$$$$$$@@@&&&&&&&&&&&&&&&@@@",
"@@@&&&&&&&&&&&&&&&@@@$$$$$$$$$$$$$$$@@@$$$$$$$$$$$$$$$$$$@@@$$$$$$$$$$$$$$$@@@&&&&&&&&&&&&&&&@@@",
"@@@&&&&&&&&&&&&&&&@@@$$$$$$$$$$$$$$$@@@$$$$$$$$$$$$$$$$$$@@@$$$$$$$$$$$$$$$@@@&&&&&&&&&&&&&&&@@@",
"@@@===============@@@$$$$$$$$$$$$$$$@@@$$$$$$$$$$$$$$$$$$@@@$$$$$$$$$$$$$$$@@@===============@@@",
"@@@===============@@@$$$$$$$$$$$$$$$@@@$$$$$$$$$$$$$$$$$$@@@$$$$$$$$$$$$$$$@@@===============@@@",
"@@@===============@@@$$$$$$$$$$$$$$$@@@$$$$$$$$$$$$$$$$$$@@@$$$$$$$$$$$$$$$@@@===============@@@",
"@@@$$$$$$$$$$$$$$$@@@$$$$$$$$$$$$$$$oooXXXooooooooooooXXXooo$$$$$$$$$$$$$$$@@@$$$$$$$$$$$$$$$@@@",
"@@@$$$$$$$$$$$$$$$@@@$$$$$$$$$$$$$$$oooXXXooooooooooooXXXooo$$$$$$$$$$$$$$$@@@$$$$$$$$$$$$$$$@@@",
"@@@$$$$$$$$$$$$$$$@@@$$$$$$$$$$$$$$$oooXXXooooooooooooXXXooo$$$$$$$$$$$$$$$@@@$$$$$$$$$$$$$$$@@@",
"@@@$$$$$$$$$$$$$$$oooooooooXXXoooooooooXXXooooooooooooXXXoooooooooXXXooooooooo$$$$$$$$$$$$$$$@@@",
"@@@$$$$$$$$$$$$$$$oooooooooXXXoooooooooXXXooooooooooooXXXoooooooooXXXooooooooo$$$$$$$$$$$$$$$@@@",
"@@@$$$$$$$$$$$$$$$oooooooooXXXoooooooooXXXooooooooooooXXXoooooooooXXXooooooooo$$$$$$$$$$$$$$$@@@",
"@@@$$$$$$$$$$$$$$$oooooooooXXXOOOOOOOOOoooOOOOOOOOOOOOoooOOOOOOOOOXXXooooooooo$$$$$$$$$$$$$$$@@@",
"@@@$$$$$$$$$$$$$$$oooooooooXXXOOOOOOOOOoooOOOOOOOOOOOOoooOOOOOOOOOXXXooooooooo$$$$$$$$$$$$$$$@@@",
"@@@$$$$$$$$$$$$$$$oooooooooXXXOOOOOOOOOoooOOOOOOOOOOOOoooOOOOOOOOOXXXooooooooo$$$$$$$$$$$$$$$@@@",
"@@@@@@@@@@@@@@@@@@OOOOOOOOOoooOOOOOOOOOoooOOOOOOOOOOOOoooOOOOOOOOOoooOOOOOOOOO@@@@@@@@@@@@@@@@@@",
"@@@@@@@@@@@@@@@@@@OOOOOOOOOoooOOOOOOOOOoooOOOOOOOOOOOOoooOOOOOOOOOoooOOOOOOOOO@@@@@@@@@@@@@@@@@@",
"@@@@@@@@@@@@@@@@@@OOOOOOOOOoooOOOOOOOOOoooOOOOOOOOOOOOoooOOOOOOOOOoooOOOOOOOOO@@@@@@@@@@@@@@@@@@",
"@@@===============%%%%%%***oooOOOOOOOOOooo...............OOOOOOOOOoooOOOOOOOOO===============@@@",
"@@@===============%%%%%%***oooOOOOOOOOOooo...............OOOOOOOOOoooOOOOOOOOO===============@@@",
"@@@===============%%%%%%***oooOOOOOOOOOooo...............OOOOOOOOOoooOOOOOOOOO===============@@@",
"@@@$$$$$$$$$$$$$$$%%%******oooOOOOOOOOO...+++******------...OOOOOOoooOOOOOOOOO$$$$$$$$$$$$$$$@@@",
"@@@$$$$$$$$$$$$$$$%%%******oooOOOOOOOOO...+++******------...OOOOOOoooOOOOOOOOO$$$$$$$$$$$$$$$@@@",
"@@@$$$$$$$$$$$$$$$%%%******oooOOOOOOOOO...+++******------...OOOOOOoooOOOOOOOOO$$$$$$$$$$$$$$$@@@",
"@@@$$$$$$$$$$$$$$$OOOOOOOOOoooOOOOOO...+++***.........+++---...OOOoooOOOOOOOOO$$$$$$$$$$$$$$$@@@",
"@@@$$$$$$$$$$$$$$$OOOOOOOOOoooOOOOOO...+++***.........+++---...OOOoooOOOOOOOOO$$$$$$$$$$$$$$$@@@",
"@@@$$$$$$$$$$$$$$$OOOOOOOOOoooOOOOOO...+++***.........+++---...OOOoooOOOOOOOOO$$$$$$$$$$$$$$$@@@",
"@@@$$$$$$$$$$$$$$$OOOOOOOOOoooOOOOOO...+++***.........+++---...OOOoooOOOOOOOOO$$$$$$$$$$$$$$$@@@",
"@@@$$$$$$$$$$$$$$$OOOOOOOOOoooOOOOOO...+++***.........+++---...OOOoooOOOOOOOOO$$$$$$$$$$$$$$$@@@",
"@@@$$$$$$$$$$$$$$$OOOOOOOOOoooOOOOOO...+++***.........+++---...OOOoooOOOOOOOOO$$$$$$$$$$$$$$$@@@",
"@@@$$$$$$$$$$$$$$$OOOOOOOOOoooOOO...+++*********************---...oooOOO***OOO$$$$$$$$$$$$$$$@@@",
"@@@$$$$$$$$$$$$$$$OOOOOOOOOoooOOO...+++*********************---...oooOOO***OOO$$$$$$$$$$$$$$$@@@",
"@@@$$$$$$$$$$$$$$$OOOOOOOOOoooOOO...+++*********************---...oooOOO***OOO$$$$$$$$$$$$$$$@@@",
"@@@@@@@@@@@@@@@@@@OOOOOOOOOoooOOO...+++*********************---...oooOOO***OOO@@@@@@@@@@@@@@@@@@",
"@@@@@@@@@@@@@@@@@@OOOOOOOOOoooOOO...+++*********************---...oooOOO***OOO@@@@@@@@@@@@@@@@@@",
"@@@@@@@@@@@@@@@@@@OOOOOOOOOoooOOO...+++*********************---...oooOOO***OOO@@@@@@@@@@@@@@@@@@",
"@@@===============OOOOOOOOOoooOOO...+++*********......******---...oooOOO***OOO===============@@@",
"@@@===============OOOOOOOOOoooOOO...+++*********......******---...oooOOO***OOO===============@@@",
"@@@===============OOOOOOOOOoooOOO...+++*********......******---...oooOOO***OOO===============@@@",
"@@@$$$$$$$$$$$$$$$OOOOOOOOOoooOOO...+++*********......*********...oooOOO***OOO$$$$$$$$$$$$$$$@@@",
"@@@$$$$$$$$$$$$$$$OOOOOOOOOoooOOO...+++*********......*********...oooOOO***OOO$$$$$$$$$$$$$$$@@@",
"@@@$$$$$$$$$$$$$$$OOOOOOOOOoooOOO...+++*********......*********...oooOOO***OOO$$$$$$$$$$$$$$$@@@",
"@@@$$$$$$$$$$$$$$$OOOOOOOOOoooOOO...+++*********......*********...oooOOO***OOO$$$$$$$$$$$$$$$@@@",
"@@@$$$$$$$$$$$$$$$OOOOOOOOOoooOOO...+++*********......*********...oooOOO***OOO$$$$$$$$$$$$$$$@@@",
"@@@$$$$$$$$$$$$$$$OOOOOOOOOoooOOO...+++*********......*********...oooOOO***OOO$$$$$$$$$$$$$$$@@@",
"@@@$$$$$$$$$$$$$$$OOOOOOOOOoooOOO...+++************************...oooOOOOOOOOO$$$$$$$$$$$$$$$@@@",
"@@@$$$$$$$$$$$$$$$OOOOOOOOOoooOOO...+++************************...oooOOOOOOOOO$$$$$$$$$$$$$$$@@@",
"@@@$$$$$$$$$$$$$$$OOOOOOOOOoooOOO...+++************************...oooOOOOOOOOO$$$$$$$$$$$$$$$@@@",
"@@@$$$$$$$$$$$$$$$OOOOOOOOOoooOOO...+++************************...oooOOOOOOOOO$$$$$$$$$$$$$$$@@@",
"@@@$$$$$$$$$$$$$$$OOOOOOOOOoooOOO...+++************************...oooOOOOOOOOO$$$$$$$$$$$$$$$@@@",
"@@@$$$$$$$$$$$$$$$OOOOOOOOOoooOOO...+++************************...oooOOOOOOOOO$$$$$$$$$$$$$$$@@@",
"@@@@@@@@@@@@@@@@@@OOOOOOOOOoooOOOOOO...........................OOOoooOOOOOOOOO@@@@@@@@@@@@@@@@@@",
"@@@@@@@@@@@@@@@@@@OOOOOOOOOoooOOOOOO...........................OOOoooOOOOOOOOO@@@@@@@@@@@@@@@@@@",
"@@@@@@@@@@@@@@@@@@OOOOOOOOOoooOOOOOO...........................OOOoooOOOOOOOOO@@@@@@@@@@@@@@@@@@",
"@@@===============%%%%%%***oooOOOOOOOOOoooOOOOOOOOOOOOoooOOOOOOOOOoooOOOOOOOOO===============@@@",
"@@@===============%%%%%%***oooOOOOOOOOOoooOOOOOOOOOOOOoooOOOOOOOOOoooOOOOOOOOO===============@@@",
"@@@===============%%%%%%***oooOOOOOOOOOoooOOOOOOOOOOOOoooOOOOOOOOOoooOOOOOOOOO===============@@@",
"@@@$$$$$$$$$$$$$$$%%%******oooOOOOOOOOOoooOOOOOOOOOOOOoooOOOOOOOOOoooOOOOOOOOO$$$$$$$$$$$$$$$@@@",
"@@@$$$$$$$$$$$$$$$%%%******oooOOOOOOOOOoooOOOOOOOOOOOOoooOOOOOOOOOoooOOOOOOOOO$$$$$$$$$$$$$$$@@@",
"@@@$$$$$$$$$$$$$$$%%%******oooOOOOOOOOOoooOOOOOOOOOOOOoooOOOOOOOOOoooOOOOOOOOO$$$$$$$$$$$$$$$@@@",
"@@@$$$$$$$$$$$$$$$OOOOOOOOOoooOOOOOOOOOoooOOOOOOOOOOOOoooOOOOOOOOOoooOOOOOOOOO$$$$$$$$$$$$$$$@@@",
"@@@$$$$$$$$$$$$$$$OOOOOOOOOoooOOOOOOOOOoooOOOOOOOOOOOOoooOOOOOOOOOoooOOOOOOOOO$$$$$$$$$$$$$$$@@@",
"@@@$$$$$$$$$$$$$$$OOOOOOOOOoooOOOOOOOOOoooOOOOOOOOOOOOoooOOOOOOOOOoooOOOOOOOOO$$$$$$$$$$$$$$$@@@",
"@@@$$$$$$$$$$$$$$$#########ooo#########ooo############ooo#########ooo#########$$$$$$$$$$$$$$$@@@",
"@@@$$$$$$$$$$$$$$$#########ooo#########ooo############ooo#########ooo#########$$$$$$$$$$$$$$$@@@",
"@@@$$$$$$$$$$$$$$$#########ooo#########ooo############ooo#########ooo#########$$$$$$$$$$$$$$$@@@"
};
