/* XPM */
static char *door_fullyopen_96[] = {
/* columns rows colors chars-per-pixel */
"96 96 6 1 ",
"  c None",
". c #412320",
"X c #434F65",
"o c #6F7F9F",
"O c #8895AF",
"+ c #A6B0C4",
/* pixels */
"                                                                                                ",
"                                                                                                ",
"                                                                                                ",
"                                                                                                ",
"                                                                                                ",
"                                                                                                ",
"                                                                                                ",
"                                                                                                ",
"                                                                                                ",
"                                                                                                ",
"                                                                                                ",
"                                                                                                ",
"                                       OOOOOOOOOOOOOOOOOO                                       ",
"                                       OOOOOOOOOOOOOOOOOO                                       ",
"                                       OOOOOOOOOOOOOOOOOO                                       ",
"                                       OOOOOOOOOOOOOOOOOO                                       ",
"                                       OOOOOOOOOOOOOOOOOO                                       ",
"                                       OOOOOOOOOOOOOOOOOO                                       ",
"                     OOOOOOOOOOOOOOOXXXOOOOOOOOOOOOOOOOOOXXXOOOOOOOOOOOOOOO                     ",
"                     OOOOOOOOOOOOOOOXXXOOOOOOOOOOOOOOOOOOXXXOOOOOOOOOOOOOOO                     ",
"                     OOOOOOOOOOOOOOOXXXOOOOOOOOOOOOOOOOOOXXXOOOOOOOOOOOOOOO                     ",
"                     OOOOOOOOOOOOOOOXXX++++++++++++++++++XXXOOOOOOOOOOOOOOO                     ",
"                     OOOOOOOOOOOOOOOXXX++++++++++++++++++XXXOOOOOOOOOOOOOOO                     ",
"                     OOOOOOOOOOOOOOOXXX++++++++++++++++++XXXOOOOOOOOOOOOOOO                     ",
"XXXOOOOOOOOOOOOOOOXXXOOOOOOOOOOOOOOOXXXooooooooooooooooooXXXOOOOOOOOOOOOOOOXXXOOOOOOOOOOOOOOOXXX",
"XXXOOOOOOOOOOOOOOOXXXOOOOOOOOOOOOOOOXXXooooooooooooooooooXXXOOOOOOOOOOOOOOOXXXOOOOOOOOOOOOOOOXXX",
"XXXOOOOOOOOOOOOOOOXXXOOOOOOOOOOOOOOOXXXooooooooooooooooooXXXOOOOOOOOOOOOOOOXXXOOOOOOOOOOOOOOOXXX",
"XXXOOOOOOOOOOOOOOOXXX+++++++++++++++XXXooooooooooooooooooXXX+++++++++++++++XXXOOOOOOOOOOOOOOOXXX",
"XXXOOOOOOOOOOOOOOOXXX+++++++++++++++XXXooooooooooooooooooXXX+++++++++++++++XXXOOOOOOOOOOOOOOOXXX",
"XXXOOOOOOOOOOOOOOOXXX+++++++++++++++XXXooooooooooooooooooXXX+++++++++++++++XXXOOOOOOOOOOOOOOOXXX",
"XXXOOOOOOOOOOOOOOOXXXoooooooooooooooXXXooooooooooooooooooXXXoooooooooooooooXXXOOOOOOOOOOOOOOOXXX",
"XXXOOOOOOOOOOOOOOOXXXoooooooooooooooXXXooooooooooooooooooXXXoooooooooooooooXXXOOOOOOOOOOOOOOOXXX",
"XXXOOOOOOOOOOOOOOOXXXoooooooooooooooXXXooooooooooooooooooXXXoooooooooooooooXXXOOOOOOOOOOOOOOOXXX",
"XXX+++++++++++++++XXXoooooooooooooooXXXooooooooooooooooooXXXoooooooooooooooXXX+++++++++++++++XXX",
"XXX+++++++++++++++XXXoooooooooooooooXXXooooooooooooooooooXXXoooooooooooooooXXX+++++++++++++++XXX",
"XXX+++++++++++++++XXXoooooooooooooooXXXooooooooooooooooooXXXoooooooooooooooXXX+++++++++++++++XXX",
"XXXoooooooooooooooXXXooooooooooooooo                        oooooooooooooooXXXoooooooooooooooXXX",
"XXXoooooooooooooooXXXooooooooooooooo                        oooooooooooooooXXXoooooooooooooooXXX",
"XXXoooooooooooooooXXXooooooooooooooo                        oooooooooooooooXXXoooooooooooooooXXX",
"XXXooooooooooooooo                                                            oooooooooooooooXXX",
"XXXooooooooooooooo                                                            oooooooooooooooXXX",
"XXXooooooooooooooo                                                            oooooooooooooooXXX",
"XXXooooooooooooooo                                                            oooooooooooooooXXX",
"XXXooooooooooooooo                                                            oooooooooooooooXXX",
"XXXooooooooooooooo                                                            oooooooooooooooXXX",
"XXXXXXXXXXXXXXXXXX                                                            XXXXXXXXXXXXXXXXXX",
"XXXXXXXXXXXXXXXXXX                                                            XXXXXXXXXXXXXXXXXX",
"XXXXXXXXXXXXXXXXXX                                                            XXXXXXXXXXXXXXXXXX",
"XXX+++++++++++++++                                                            +++++++++++++++XXX",
"XXX+++++++++++++++                                                            +++++++++++++++XXX",
"XXX+++++++++++++++                                                            +++++++++++++++XXX",
"XXXooooooooooooooo                                                            oooooooooooooooXXX",
"XXXooooooooooooooo                                                            oooooooooooooooXXX",
"XXXooooooooooooooo                                                            oooooooooooooooXXX",
"XXXooooooooooooooo                                                            oooooooooooooooXXX",
"XXXooooooooooooooo                                                            oooooooooooooooXXX",
"XXXooooooooooooooo                                                            oooooooooooooooXXX",
"XXXooooooooooooooo                                                            oooooooooooooooXXX",
"XXXooooooooooooooo                                                            oooooooooooooooXXX",
"XXXooooooooooooooo                                                            oooooooooooooooXXX",
"XXXooooooooooooooo                                                            oooooooooooooooXXX",
"XXXooooooooooooooo                                                            oooooooooooooooXXX",
"XXXooooooooooooooo                                                            oooooooooooooooXXX",
"XXXXXXXXXXXXXXXXXX                                                            XXXXXXXXXXXXXXXXXX",
"XXXXXXXXXXXXXXXXXX                                                            XXXXXXXXXXXXXXXXXX",
"XXXXXXXXXXXXXXXXXX                                                            XXXXXXXXXXXXXXXXXX",
"XXX+++++++++++++++                                                            +++++++++++++++XXX",
"XXX+++++++++++++++                                                            +++++++++++++++XXX",
"XXX+++++++++++++++                                                            +++++++++++++++XXX",
"XXXooooooooooooooo                                                            oooooooooooooooXXX",
"XXXooooooooooooooo                                                            oooooooooooooooXXX",
"XXXooooooooooooooo                                                            oooooooooooooooXXX",
"XXXooooooooooooooo                                                            oooooooooooooooXXX",
"XXXooooooooooooooo                                                            oooooooooooooooXXX",
"XXXooooooooooooooo                                                            oooooooooooooooXXX",
"XXXooooooooooooooo                                                            oooooooooooooooXXX",
"XXXooooooooooooooo                                                            oooooooooooooooXXX",
"XXXooooooooooooooo                                                            oooooooooooooooXXX",
"XXXooooooooooooooo                                                            oooooooooooooooXXX",
"XXXooooooooooooooo                                                            oooooooooooooooXXX",
"XXXooooooooooooooo                                                            oooooooooooooooXXX",
"XXXXXXXXXXXXXXXXXX                                                            XXXXXXXXXXXXXXXXXX",
"XXXXXXXXXXXXXXXXXX                                                            XXXXXXXXXXXXXXXXXX",
"XXXXXXXXXXXXXXXXXX                                                            XXXXXXXXXXXXXXXXXX",
"XXX+++++++++++++++                                                            +++++++++++++++XXX",
"XXX+++++++++++++++                                                            +++++++++++++++XXX",
"XXX+++++++++++++++                                                            +++++++++++++++XXX",
"XXXooooooooooooooo............................................................oooooooooooooooXXX",
"XXXooooooooooooooo............................................................oooooooooooooooXXX",
"XXXooooooooooooooo............................................................oooooooooooooooXXX",
"XXXooooooooooooooo............................................................oooooooooooooooXXX",
"XXXooooooooooooooo............................................................oooooooooooooooXXX",
"XXXooooooooooooooo............................................................oooooooooooooooXXX",
"XXXooooooooooooooo............................................................oooooooooooooooXXX",
"XXXooooooooooooooo............................................................oooooooooooooooXXX",
"XXXooooooooooooooo............................................................oooooooooooooooXXX"
};
