/* XPM */
static char *_908471c8a2d41e5aece8d5198e0203bWpBlDoOkE0wHrmUC[] = {
/* columns rows colors chars-per-pixel */
"96 96 17 1 ",
"  c None",
". c #100120",
"X c #653B02",
"o c #633C01",
"O c #795603",
"+ c #82061B",
"@ c #A60313",
"# c #921E38",
"$ c #C10314",
"% c #E7031B",
"& c #A23856",
"* c #F83649",
"= c #FF6F77",
"- c #9E8804",
"; c #B8B304",
": c #FFA5A3",
"> c #F0DBC9",
/* pixels */
"                                                                                                ",
"                                                                                                ",
"                                                                                                ",
"                                                                                                ",
"                                                                                                ",
"                                                                                                ",
"                                                                                                ",
"                                                                                                ",
"                                                                                                ",
"                                                                                                ",
"                                                                                                ",
"                                                                                                ",
"                                                                                                ",
"                                                                                                ",
"                                                                                                ",
"                                                                                                ",
"                                                                                                ",
"                                                                                                ",
"                                                                                                ",
"                                                                                                ",
"                                                                                                ",
"                                                                                                ",
"                                                                                                ",
"                                                                                                ",
"                                                                                                ",
"                                                                                                ",
"                                                                                                ",
"                                                                                                ",
"                                                                                                ",
"                                                                                                ",
"                                                                                                ",
"                                                                                                ",
"                                                                                                ",
"                                                                                                ",
"                                                                                                ",
"                                                                                                ",
"                                 ...                                                            ",
"                                 ...                                                            ",
"                                 ...                                                            ",
"                                    ...                                                         ",
"                                    ...                                                         ",
"                                    ...                                                         ",
"                     .........      ...                                                         ",
"                     .........      ...                                                         ",
"                     .........      ...                                                         ",
"                  ...XXXOOO;;;......                                                            ",
"                  ...XXXOOO;;;......                                                            ",
"                  ...XXXOOO;;;......                                                            ",
"      ...      ...XXXOOO---...ooo.........                                                      ",
"      ...      ...XXXOOO---...ooo.........                                                      ",
"      ...      ...XXXOOO---...ooo.........                                                      ",
"         ......XXXOOO---...###...$$$***===...                                                   ",
"         ......XXXOOO---...###...$$$***===...                                                   ",
"         ......XXXOOO---...###...$$$***===...                                                   ",
"               .........+++$$$+++...+++***===...                                                ",
"               .........+++$$$+++...+++***===...                                                ",
"               .........+++$$$+++...+++***===...                                                ",
"            ...+++@@@+++$$$===:::$$$***:::***%%%...                                             ",
"            ...+++@@@+++$$$===:::$$$***:::***%%%...                                             ",
"            ...+++@@@+++$$$===:::$$$***:::***%%%...                                             ",
"            ...###+++$$$***%%%***:::>>>***%%%$$$...                                             ",
"            ...###+++$$$***%%%***:::>>>***%%%$$$...                                             ",
"            ...###+++$$$***%%%***:::>>>***%%%$$$...                                             ",
"            ...&&&+++@@@$$$%%%%%%******%%%%%%@@@...                                             ",
"            ...&&&+++@@@$$$%%%%%%******%%%%%%@@@...                                             ",
"            ...&&&+++@@@$$$%%%%%%******%%%%%%@@@...                                             ",
"            ...&&&+++@@@@@@$$$%%%%%%%%%$$$@@@+++...                                             ",
"            ...&&&+++@@@@@@$$$%%%%%%%%%$$$@@@+++...                                             ",
"            ...&&&+++@@@@@@$$$%%%%%%%%%$$$@@@+++...                                             ",
"               ...&&&+++@@@@@@$$$%%%$$$$$$@@@...                                                ",
"               ...&&&+++@@@@@@$$$%%%$$$$$$@@@...                                                ",
"               ...&&&+++@@@@@@$$$%%%$$$$$$@@@...                                                ",
"               ...&&&++++++@@@@@@$$$@@@@@@+++...                                                ",
"               ...&&&++++++@@@@@@$$$@@@@@@+++...                                                ",
"               ...&&&++++++@@@@@@$$$@@@@@@+++...                                                ",
"                  ...&&&+++++++++@@@$$$@@@...                                                   ",
"                  ...&&&+++++++++@@@$$$@@@...                                                   ",
"                  ...&&&+++++++++@@@$$$@@@...                                                   ",
"                  ...######+++...###@@@+++...                                                   ",
"                  ...######+++...###@@@+++...                                                   ",
"                  ...######+++...###@@@+++...                                                   ",
"                     .........   .........                                                      ",
"                     .........   .........                                                      ",
"                     .........   .........                                                      ",
"                                                                                                ",
"                                                                                                ",
"                                                                                                ",
"                                                                                                ",
"                                                                                                ",
"                                                                                                ",
"                                                                                                ",
"                                                                                                ",
"                                                                                                ",
"                                                                                                ",
"                                                                                                ",
"                                                                                                "
};
