/* XPM */
static char *_07829e419354e468280015356ac3d2bCYoQSk3iHh9fierE[] = {
/* columns rows colors chars-per-pixel */
"128 128 8 1 ",
"  c None",
". c #2F2F2E",
"X c #3B3B39",
"o c #4F4F4E",
"O c #9D5021",
"+ c #D67941",
"@ c gray72",
"# c white",
/* pixels */
"                                                                                                                                ",
"                                                                                                                                ",
"                                                                                                                                ",
"                                                                                                                                ",
"                                                                                                                                ",
"                                                                                                                                ",
"                                                                                                                                ",
"                                                                                                                                ",
"                                                                                                                                ",
"                                                                                                                                ",
"                                                                                                                                ",
"                                                                                                                                ",
"                                                                                                                                ",
"                                                                                                                                ",
"                                                                                                                                ",
"                                                                                                                                ",
"                                                                                                                                ",
"                                                                                                                                ",
"                                                                                                                                ",
"                                                                                                                                ",
"                                                                                                                                ",
"                                                                                                                                ",
"                                                                                                                                ",
"                                                                                                                                ",
"                                                                                                                                ",
"                                                                                                                                ",
"                                                                                                                                ",
"                                                                                                                                ",
"                                                                                                                                ",
"                                                                                                                                ",
"                                                                                                                                ",
"                                                                                                                                ",
"                                                                                                                                ",
"                                                                                                                                ",
"                                                                                                                                ",
"                                                                                                                                ",
"                                                                                                                                ",
"                                                                                                                                ",
"                                                                                                                                ",
"                                                                                                                                ",
"                                                                                                                                ",
"                                                                                                                                ",
"                                                                                                                                ",
"                                                                                                                                ",
"                                                                                                                                ",
"                                                                                                                                ",
"                                                                                                                                ",
"                                                                                                                                ",
"                                                                                                                                ",
"                                                                                                                                ",
"                                                                                                                                ",
"                                                                                                                                ",
"                                                                                                                                ",
"                                                                                                                                ",
"                                                                                                                                ",
"                                                                                                                                ",
"                                                                                                                                ",
"                                                                                                                                ",
"                                                                                                                                ",
"                                                                                                                                ",
"                                                                                                                                ",
"                                                                                                                                ",
"                                                                                                                                ",
"                                                                                                                                ",
"                                                                                                                                ",
"                                                                                                                                ",
"                                                                                                                                ",
"                                                                                                                                ",
"                                                                        ........                                                ",
"                                                                        ........                                                ",
"                                                                        ........                                                ",
"                                                                        ........                                                ",
"                                                                    ....OOOO....        ............                            ",
"                                                                    ....OOOO....        ............                            ",
"                                                                    ....OOOO....        ............                            ",
"                                                                    ....OOOO....        ............                            ",
"                                                                ....OOOO####....    ....OOOO++++....                            ",
"                                                                ....OOOO####....    ....OOOO++++....                            ",
"                                                                ....OOOO####....    ....OOOO++++....                            ",
"                                                                ....OOOO####....    ....OOOO++++....                            ",
"                        ........                                ....OOOO####....................                                ",
"                        ........                                ....OOOO####....................                                ",
"                        ........                                ....OOOO####....................                                ",
"                        ........                                ....OOOO####....................                                ",
"                        ....@@@@............                    ....OOOOOOOO++++++++++++++++....                                ",
"                        ....@@@@............                    ....OOOOOOOO++++++++++++++++....                                ",
"                        ....@@@@............                    ....OOOOOOOO++++++++++++++++....                                ",
"                        ....@@@@............                    ....OOOOOOOO++++++++++++++++....                                ",
"                        ....@@@@########++++....                ....OOOOOOOO++++....OOOOOOOOOOOO....                            ",
"                        ....@@@@########++++....                ....OOOOOOOO++++....OOOOOOOOOOOO....                            ",
"                        ....@@@@########++++....                ....OOOOOOOO++++....OOOOOOOOOOOO....                            ",
"                        ....@@@@########++++....                ....OOOOOOOO++++....OOOOOOOOOOOO....                            ",
"                            ....@@@@OOOO++++++++....        ....OOOOOOOOOOOO++++++++++++++++............                        ",
"                            ....@@@@OOOO++++++++....        ....OOOOOOOOOOOO++++++++++++++++............                        ",
"                            ....@@@@OOOO++++++++....        ....OOOOOOOOOOOO++++++++++++++++............                        ",
"                            ....@@@@OOOO++++++++....        ....OOOOOOOOOOOO++++++++++++++++............                        ",
"                                ....OOOO++++++++++++....    ....@@@@@@@@############################....                        ",
"                                ....OOOO++++++++++++....    ....@@@@@@@@############################....                        ",
"                                ....OOOO++++++++++++....    ....@@@@@@@@############################....                        ",
"                                ....OOOO++++++++++++....    ....@@@@@@@@############################....                        ",
"                                ....OOOOOOOO++++++++....................@@@@@@@@############........                            ",
"                                ....OOOOOOOO++++++++....................@@@@@@@@############........                            ",
"                                ....OOOOOOOO++++++++....................@@@@@@@@############........                            ",
"                                ....OOOOOOOO++++++++....................@@@@@@@@############........                            ",
"                                    ....OOOOOOOO....OOOOOOOOOOOOOOOOOOOO....................                                    ",
"                                    ....OOOOOOOO....OOOOOOOOOOOOOOOOOOOO....................                                    ",
"                                    ....OOOOOOOO....OOOOOOOOOOOOOOOOOOOO....................                                    ",
"                                    ....OOOOOOOO....OOOOOOOOOOOOOOOOOOOO....................                                    ",
"                                        ........OOOOOOOOOOOOOOOO++++++++++++++++########....                                    ",
"                                        ........OOOOOOOOOOOOOOOO++++++++++++++++########....                                    ",
"                                        ........OOOOOOOOOOOOOOOO++++++++++++++++########....                                    ",
"                                        ........OOOOOOOOOOOOOOOO++++++++++++++++########....                                    ",
"                                            ....OOOOOOOOOOOO++++++++++++OOOO@@@@@@@@........                                    ",
"                                            ....OOOOOOOOOOOO++++++++++++OOOO@@@@@@@@........                                    ",
"                                            ....OOOOOOOOOOOO++++++++++++OOOO@@@@@@@@........                                    ",
"                                            ....OOOOOOOOOOOO++++++++++++OOOO@@@@@@@@........                                    ",
"                                            ....OOOO................++++............OOOO....                                    ",
"                                            ....OOOO................++++............OOOO....                                    ",
"                                            ....OOOO................++++............OOOO....                                    ",
"                                            ....OOOO................++++............OOOO....                                    ",
"                                            ....XXXX....XXXX........oooo....    ....oooo....                                    ",
"                                            ....XXXX....XXXX........oooo....    ....oooo....                                    ",
"                                            ....XXXX....XXXX........oooo....    ....oooo....                                    ",
"                                            ....XXXX....XXXX........oooo....    ....oooo....                                    ",
"                                            ........    ....        ........        ........                                    ",
"                                            ........    ....        ........        ........                                    ",
"                                            ........    ....        ........        ........                                    ",
"                                            ........    ....        ........        ........                                    "
};
