/* XPM */
static char *fox_96[] = {
/* columns rows colors chars-per-pixel */
"96 96 8 1 ",
"  c None",
". c #2F2F2E",
"X c #3B3B39",
"o c #4F4F4E",
"O c #9D5021",
"+ c #D67941",
"@ c gray72",
"# c white",
/* pixels */
"                                                                                                ",
"                                                                                                ",
"                                                                                                ",
"                                                                                                ",
"                                                                                                ",
"                                                                                                ",
"                                                                                                ",
"                                                                                                ",
"                                                                                                ",
"                                                                                                ",
"                                                                                                ",
"                                                                                                ",
"                                                                                                ",
"                                                                                                ",
"                                                                                                ",
"                                                                                                ",
"                                                                                                ",
"                                                                                                ",
"                                                                                                ",
"                                                                                                ",
"                                                                                                ",
"                                                                                                ",
"                                                                                                ",
"                                                                                                ",
"                                                                                                ",
"                                                                                                ",
"                                                                                                ",
"                                                                                                ",
"                                                                                                ",
"                                                                                                ",
"                                                                                                ",
"                                                                                                ",
"                                                                                                ",
"                                                                                                ",
"                                                                                                ",
"                                                                                                ",
"                                                                                                ",
"                                                                                                ",
"                                                                                                ",
"                                                                                                ",
"                                                                                                ",
"                                                                                                ",
"                                                                                                ",
"                                                                                                ",
"                                                                                                ",
"                                                                                                ",
"                                                                                                ",
"                                                                                                ",
"                                                                                                ",
"                                                                                                ",
"                                                                                                ",
"                                                      ......                                    ",
"                                                      ......                                    ",
"                                                      ......                                    ",
"                                                   ...OOO...      .........                     ",
"                                                   ...OOO...      .........                     ",
"                                                   ...OOO...      .........                     ",
"                                                ...OOO###...   ...OOO+++...                     ",
"                                                ...OOO###...   ...OOO+++...                     ",
"                                                ...OOO###...   ...OOO+++...                     ",
"                  ......                        ...OOO###...............                        ",
"                  ......                        ...OOO###...............                        ",
"                  ......                        ...OOO###...............                        ",
"                  ...@@@.........               ...OOOOOO++++++++++++...                        ",
"                  ...@@@.........               ...OOOOOO++++++++++++...                        ",
"                  ...@@@.........               ...OOOOOO++++++++++++...                        ",
"                  ...@@@######+++...            ...OOOOOO+++...OOOOOOOOO...                     ",
"                  ...@@@######+++...            ...OOOOOO+++...OOOOOOOOO...                     ",
"                  ...@@@######+++...            ...OOOOOO+++...OOOOOOOOO...                     ",
"                     ...@@@OOO++++++...      ...OOOOOOOOO++++++++++++.........                  ",
"                     ...@@@OOO++++++...      ...OOOOOOOOO++++++++++++.........                  ",
"                     ...@@@OOO++++++...      ...OOOOOOOOO++++++++++++.........                  ",
"                        ...OOO+++++++++...   ...@@@@@@#####################...                  ",
"                        ...OOO+++++++++...   ...@@@@@@#####################...                  ",
"                        ...OOO+++++++++...   ...@@@@@@#####################...                  ",
"                        ...OOOOOO++++++...............@@@@@@#########......                     ",
"                        ...OOOOOO++++++...............@@@@@@#########......                     ",
"                        ...OOOOOO++++++...............@@@@@@#########......                     ",
"                           ...OOOOOO...OOOOOOOOOOOOOOO...............                           ",
"                           ...OOOOOO...OOOOOOOOOOOOOOO...............                           ",
"                           ...OOOOOO...OOOOOOOOOOOOOOO...............                           ",
"                              ......OOOOOOOOOOOO++++++++++++######...                           ",
"                              ......OOOOOOOOOOOO++++++++++++######...                           ",
"                              ......OOOOOOOOOOOO++++++++++++######...                           ",
"                                 ...OOOOOOOOO+++++++++OOO@@@@@@......                           ",
"                                 ...OOOOOOOOO+++++++++OOO@@@@@@......                           ",
"                                 ...OOOOOOOOO+++++++++OOO@@@@@@......                           ",
"                                 ...OOO............+++.........OOO...                           ",
"                                 ...OOO............+++.........OOO...                           ",
"                                 ...OOO............+++.........OOO...                           ",
"                                 ...XXX...XXX......ooo...   ...ooo...                           ",
"                                 ...XXX...XXX......ooo...   ...ooo...                           ",
"                                 ...XXX...XXX......ooo...   ...ooo...                           ",
"                                 ......   ...      ......      ......                           ",
"                                 ......   ...      ......      ......                           ",
"                                 ......   ...      ......      ......                           "
};
