/* XPM */
static char *fox_112[] = {
/* columns rows colors chars-per-pixel */
"112 112 36 1 ",
"  c None",
". c #2F2F2E",
"X c #333332",
"o c #353534",
"O c #3A3A39",
"+ c #3B3B39",
"@ c #3F3F3E",
"# c #543A2A",
"$ c #594233",
"% c #664028",
"& c #744A30",
"* c #4F4F4E",
"= c #515151",
"- c #5D5D5C",
"; c #6D5A4D",
": c #7F6B5F",
"> c #747473",
", c #747474",
"< c #824824",
"1 c #9D5021",
"2 c #90522C",
"3 c #835438",
"4 c #9E5C34",
"5 c #AC673C",
"6 c #BA6531",
"7 c #C86F39",
"8 c #A87E64",
"9 c #D67941",
"0 c #AB846D",
"q c #979797",
"w c gray72",
"e c #CEA890",
"r c #D5C2B6",
"t c #CBCBCB",
"y c #DCDCDC",
"u c white",
/* pixels */
"                                                                                                                ",
"                                                                                                                ",
"                                                                                                                ",
"                                                                                                                ",
"                                                                                                                ",
"                                                                                                                ",
"                                                                                                                ",
"                                                                                                                ",
"                                                                                                                ",
"                                                                                                                ",
"                                                                                                                ",
"                                                                                                                ",
"                                                                                                                ",
"                                                                                                                ",
"                                                                                                                ",
"                                                                                                                ",
"                                                                                                                ",
"                                                                                                                ",
"                                                                                                                ",
"                                                                                                                ",
"                                                                                                                ",
"                                                                                                                ",
"                                                                                                                ",
"                                                                                                                ",
"                                                                                                                ",
"                                                                                                                ",
"                                                                                                                ",
"                                                                                                                ",
"                                                                                                                ",
"                                                                                                                ",
"                                                                                                                ",
"                                                                                                                ",
"                                                                                                                ",
"                                                                                                                ",
"                                                                                                                ",
"                                                                                                                ",
"                                                                                                                ",
"                                                                                                                ",
"                                                                                                                ",
"                                                                                                                ",
"                                                                                                                ",
"                                                                                                                ",
"                                                                                                                ",
"                                                                                                                ",
"                                                                                                                ",
"                                                                                                                ",
"                                                                                                                ",
"                                                                                                                ",
"                                                                                                                ",
"                                                                                                                ",
"                                                                                                                ",
"                                                                                                                ",
"                                                                                                                ",
"                                                                                                                ",
"                                                                                                                ",
"                                                                                                                ",
"                                                                                                                ",
"                                                                                                                ",
"                                                                                                                ",
"                                                                                                                ",
"                                                               .......                                          ",
"                                                               .......                                          ",
"                                                               .......                                          ",
"                                                            ...111%...       ..........                         ",
"                                                            ...111%...       ..........                         ",
"                                                            ...111%...       ..........                         ",
"                                                           #%%%eee:...       %%%&333...                         ",
"                                                        ...%111uuuq...    ...1116999...                         ",
"                                                        ...%111uuuq...    ...1116999...                         ",
"                                                        ...%111uuuq...    ...1116999...                         ",
"                     .......                            ...%111uuuq.................                            ",
"                     .......                            ...%111uuuq.................                            ",
"                     .......                            ...%111uuuq.................                            ",
"                     ...=>>>                            ...%111eee83333333333333$...                            ",
"                     ...>www..........                  ...%111111699999999999993...                            ",
"                     ...>www..........                  ...%111111699999999999993...                            ",
"                     ...>www..........                  ...%111111699999999999993...                            ",
"                     ...>wwwuuuuuuu9993...              ...%1111116999...%1111111111...                         ",
"                     ...>wwwuuuuuuu9993...              ...%1111116999...%1111111111...                         ",
"                     ...>wwwuuuuuuu9993...              ...%1111116999...%1111111111...                         ",
"                        ->>>yyyreee9995333              %%%<111111699933346666662%%%....                        ",
"                         ...www01119999999...        ...1111111111699999999999993..........                     ",
"                         ...www01119999999...        ...1111111111699999999999993..........                     ",
"                         ...www01119999999...        ...1111111111699999999999993..........                     ",
"                            ...%11199999999993...    ...wwwwwwwuuuuuuuuuuuuuuuuuuuuuuuuq...                     ",
"                            ...%11199999999993...    ...wwwwwwwuuuuuuuuuuuuuuuuuuuuuuuuq...                     ",
"                            ...%11199999999993...    ...wwwwwwwuuuuuuuuuuuuuuuuuuuuuuuuq...                     ",
"                            ...%11166679999993...   ....>>>>>>>yyyyyyyuuuuuuuuuutqqqqqq>                        ",
"                            ...%11111169999993.................wwwwwwwuuuuuuuuuuq......                         ",
"                            ...%11111169999993.................wwwwwwwuuuuuuuuuuq......                         ",
"                            ...%11111169999993.................wwwwwwwuuuuuuuuuuq......                         ",
"                                ...1111111...%11111111111111111.................                                ",
"                                ...1111111...%11111111111111111.................                                ",
"                                ...1111111...%11111111111111111.................                                ",
"                                   %%%%%%%%%%<111111111166666663333333qqqqqqq...                                ",
"                                   .......1111111111111199999999999999uuuuuuu...                                ",
"                                   .......1111111111111199999999999999uuuuuuu...                                ",
"                                   .......1111111111111199999999999999uuuuuuu...                                ",
"                                       ...1111111111699999999991110wwwwww>......                                ",
"                                       ...1111111111699999999991110wwwwww>......                                ",
"                                       ...1111111111699999999991110wwwwww>......                                ",
"                                       ...111<%%%%%%&3333335999%%%;>>>>>>;%%%...                                ",
"                                       ...111%.............3999..........%111...                                ",
"                                       ...111%.............3999..........%111...                                ",
"                                       ...111%.............3999..........%111...                                ",
"                                       ...+++o...+++o......+***...    ...+***...                                ",
"                                       ...+++o...+++o......+***...    ...+***...                                ",
"                                       ...+++o...+++o......+***...    ...+***...                                ",
"                                       ...oooo   oooo      ++++...       ++++...                                ",
"                                       ......    ...        ......        ......                                ",
"                                       ......    ...        ......        ......                                ",
"                                       ......    ...        ......        ......                                "
};
