/* XPM */
static char *a701ee593c5f4920aa849419aaa7a9c8kHtK145wal8MaMlY[] = {
/* columns rows colors chars-per-pixel */
"64 64 8 1 ",
"  c None",
". c #2F2F2E",
"X c #3B3B39",
"o c #4F4F4E",
"O c #9D5021",
"+ c #D67941",
"@ c gray72",
"# c white",
/* pixels */
"                                                                ",
"                                                                ",
"                                                                ",
"                                                                ",
"                                                                ",
"                                                                ",
"                                                                ",
"                                                                ",
"                                                                ",
"                                                                ",
"                                                                ",
"                                                                ",
"                                                                ",
"                                                                ",
"                                                                ",
"                                                                ",
"                                                                ",
"                                                                ",
"                                                                ",
"                                                                ",
"                                                                ",
"                                                                ",
"                                                                ",
"                                                                ",
"                                                                ",
"                                                                ",
"                                                                ",
"                                                                ",
"                                                                ",
"                                                                ",
"                                                                ",
"                                                                ",
"                                                                ",
"                                                                ",
"                                    ....                        ",
"                                    ....                        ",
"                                  ..OO..    ......              ",
"                                  ..OO..    ......              ",
"                                ..OO##..  ..OO++..              ",
"                                ..OO##..  ..OO++..              ",
"            ....                ..OO##..........                ",
"            ....                ..OO##..........                ",
"            ..@@......          ..OOOO++++++++..                ",
"            ..@@......          ..OOOO++++++++..                ",
"            ..@@####++..        ..OOOO++..OOOOOO..              ",
"            ..@@####++..        ..OOOO++..OOOOOO..              ",
"              ..@@OO++++..    ..OOOOOO++++++++......            ",
"              ..@@OO++++..    ..OOOOOO++++++++......            ",
"                ..OO++++++..  ..@@@@##############..            ",
"                ..OO++++++..  ..@@@@##############..            ",
"                ..OOOO++++..........@@@@######....              ",
"                ..OOOO++++..........@@@@######....              ",
"                  ..OOOO..OOOOOOOOOO..........                  ",
"                  ..OOOO..OOOOOOOOOO..........                  ",
"                    ....OOOOOOOO++++++++####..                  ",
"                    ....OOOOOOOO++++++++####..                  ",
"                      ..OOOOOO++++++OO@@@@....                  ",
"                      ..OOOOOO++++++OO@@@@....                  ",
"                      ..OO........++......OO..                  ",
"                      ..OO........++......OO..                  ",
"                      ..XX..XX....oo..  ..oo..                  ",
"                      ..XX..XX....oo..  ..oo..                  ",
"                      ....  ..    ....    ....                  ",
"                      ....  ..    ....    ....                  "
};
