/* XPM */
static char *d23ae62639c147fc840d42882cdc6d23F00PdoxFtJYyGjbq[] = {
/* columns rows colors chars-per-pixel */
"16 16 26 1 ",
"  c None",
". c #170625",
"X c #731221",
"o c #902A1C",
"O c #912B1E",
"+ c #A52E20",
"@ c #AE3C2F",
"# c #BE3A28",
"$ c #C03B28",
"% c #CE4F1E",
"& c #C9532D",
"* c #C9532E",
"= c #DC5D25",
"- c #DD5E25",
"; c #DB6437",
": c #ED7537",
"> c #EF7637",
", c #B76651",
"< c #FF904A",
"1 c #FF914B",
"2 c #CC846C",
"3 c #FFB66B",
"4 c #FFB66C",
"5 c #FFE37F",
"6 c #E6A383",
"7 c #EDC0AB",
/* pixels */
"                ",
"       ...      ",
"      .:4:.     ",
"  ....@2:*+.    ",
" .3:2667*+O.    ",
".5@**#+2+@#+.   ",
".3O@#@OX2oXXX.  ",
".<#*;;*#+2+#++. ",
".:XO##@OXX,@XX. ",
".=:@*&*;**#,@*+.",
".%=:o##@#@XoXOX.",
" .%-:<3@##**$*#.",
"  ..%--335@#o#3.",
"    ...%-:553<:.",
"       ...-::-@.",
"          ..... "
};
