/* XPM */
static char *_a468313752341cde854ec4efeaac3d9lZ7SrD0kPYYboYLA[] = {
/* columns rows colors chars-per-pixel */
"16 16 9 1 ",
"  c None",
". c #170625",
"X c #513E4A",
"o c #6F5F67",
"O c #9F908C",
"+ c #8B969F",
"@ c #C1AFA0",
"# c #E2CFBF",
"$ c #FFF1C3",
/* pixels */
"   .     .      ",
"  .#.   .#.     ",
"   .O. .OoO.    ",
"   .o..O@$@+.   ",
"  .o. .oO$Oo.   ",
" .O@..OO@@@Oo.  ",
".@X.#.XooOoo..  ",
".#.OoXXOO$@Oo.  ",
".@...OoXO@Ooo.  ",
".O.  .Xo$O@o+.  ",
" .O. .oO@$@@o.  ",
"  .O..oOO@OOo.  ",
"   .#.oX@$@o+.  ",
"   .ooXoO@Oo+.  ",
"  .O.XoO@$$@Oo. ",
"   . .........  "
};
