/* XPM */
static char *strawberry_64[] = {
/* columns rows colors chars-per-pixel */
"64 64 20 1 ",
"  c None",
". c #353401",
"X c #170625",
"o c #620527",
"O c #640426",
"+ c #6C1A37",
"@ c #4C4E01",
"# c #505401",
"$ c #686F0A",
"% c #76334B",
"& c #A00227",
"* c #CA042A",
"= c #D3042B",
"- c #EF1339",
"; c #FF2A51",
": c #FF5E77",
"> c #838C1A",
", c #C1D542",
"< c #FF7D8F",
"1 c #FFFEE8",
/* pixels */
"                                                                ",
"                                                                ",
"                                                                ",
"                                                                ",
"                            XXXXXXXX                            ",
"                            XXXXXXXX                            ",
"                            XXXXXXXX                            ",
"                            XXXXXXXX                            ",
"                        XXXX####....XXXX    XXXXXXXX            ",
"                        XXXX####....XXXX    XXXXXXXX            ",
"                        XXXX####....XXXX    XXXXXXXX            ",
"                        XXXX####....XXXX    XXXXXXXX            ",
"                            XXXX@@@@....XXXX$$$$####XXXX        ",
"                            XXXX@@@@....XXXX$$$$####XXXX        ",
"                            XXXX@@@@....XXXX$$$$####XXXX        ",
"                            XXXX@@@@....XXXX$$$$####XXXX        ",
"                XXXXXXXXXXXXXXXX....XXXX@@@@####XXXX            ",
"                XXXXXXXXXXXXXXXX....XXXX@@@@####XXXX            ",
"                XXXXXXXXXXXXXXXX....XXXX@@@@####XXXX            ",
"                XXXXXXXXXXXXXXXX....XXXX@@@@####XXXX            ",
"            XXXX&&&&====----&&&&OOOO@@@@>>>>XXXXXXXX            ",
"            XXXX&&&&====----&&&&OOOO@@@@>>>>XXXXXXXX            ",
"            XXXX&&&&====----&&&&OOOO@@@@>>>>XXXXXXXX            ",
"            XXXX&&&&====----&&&&OOOO@@@@>>>>XXXXXXXX            ",
"        XXXX&&&&----;;;;****;;;;****OOOO....>>>>,,,,XXXX        ",
"        XXXX&&&&----;;;;****;;;;****OOOO....>>>>,,,,XXXX        ",
"        XXXX&&&&----;;;;****;;;;****OOOO....>>>>,,,,XXXX        ",
"        XXXX&&&&----;;;;****;;;;****OOOO....>>>>,,,,XXXX        ",
"        XXXX====;;;;----<<<<----<<<<****OOOOXXXX....$$$$XXXX    ",
"        XXXX====;;;;----<<<<----<<<<****OOOOXXXX....$$$$XXXX    ",
"        XXXX====;;;;----<<<<----<<<<****OOOOXXXX....$$$$XXXX    ",
"        XXXX====;;;;----<<<<----<<<<****OOOOXXXX....$$$$XXXX    ",
"    XXXX====--------::::----1111----;;;;&&&&XXXX....####XXXX    ",
"    XXXX====--------::::----1111----;;;;&&&&XXXX....####XXXX    ",
"    XXXX====--------::::----1111----;;;;&&&&XXXX....####XXXX    ",
"    XXXX====--------::::----1111----;;;;&&&&XXXX....####XXXX    ",
"    XXXX--------;;;;----<<<<----<<<<&&&&****OOOO####XXXX        ",
"    XXXX--------;;;;----<<<<----<<<<&&&&****OOOO####XXXX        ",
"    XXXX--------;;;;----<<<<----<<<<&&&&****OOOO####XXXX        ",
"    XXXX--------;;;;----<<<<----<<<<&&&&****OOOO####XXXX        ",
"    XXXX====;;;;----::::----::::&&&&====&&&&++++XXXX            ",
"    XXXX====;;;;----::::----::::&&&&====&&&&++++XXXX            ",
"    XXXX====;;;;----::::----::::&&&&====&&&&++++XXXX            ",
"    XXXX====;;;;----::::----::::&&&&====&&&&++++XXXX            ",
"    XXXX----====;;;;----;;;;----;;;;&&&&OOOO%%%%XXXX            ",
"    XXXX----====;;;;----;;;;----;;;;&&&&OOOO%%%%XXXX            ",
"    XXXX----====;;;;----;;;;----;;;;&&&&OOOO%%%%XXXX            ",
"    XXXX----====;;;;----;;;;----;;;;&&&&OOOO%%%%XXXX            ",
"    XXXX====----====;;;;&&&&;;;;&&&&++++%%%%XXXX                ",
"    XXXX====----====;;;;&&&&;;;;&&&&++++%%%%XXXX                ",
"    XXXX====----====;;;;&&&&;;;;&&&&++++%%%%XXXX                ",
"    XXXX====----====;;;;&&&&;;;;&&&&++++%%%%XXXX                ",
"        XXXX&&&&----&&&&----&&&&OOOOXXXXXXXX                    ",
"        XXXX&&&&----&&&&----&&&&OOOOXXXXXXXX                    ",
"        XXXX&&&&----&&&&----&&&&OOOOXXXXXXXX                    ",
"        XXXX&&&&----&&&&----&&&&OOOOXXXXXXXX                    ",
"            XXXXXXXXXXXXXXXXXXXXXXXX                            ",
"            XXXXXXXXXXXXXXXXXXXXXXXX                            ",
"            XXXXXXXXXXXXXXXXXXXXXXXX                            ",
"            XXXXXXXXXXXXXXXXXXXXXXXX                            ",
"                                                                ",
"                                                                ",
"                                                                ",
"                                                                "
};
