/* XPM */
static char *_c8b956d94d74329bc483ce8091a3422iIuQVBjUA7RXJjfe[] = {
/* columns rows colors chars-per-pixel */
"16 16 20 1 ",
"  c None",
". c #353401",
"X c #170625",
"o c #620527",
"O c #640426",
"+ c #6C1A37",
"@ c #4C4E01",
"# c #505401",
"$ c #686F0A",
"% c #76334B",
"& c #A00227",
"* c #CA042A",
"= c #D3042B",
"- c #EF1339",
"; c #FF2A51",
": c #FF5E77",
"> c #838C1A",
", c #C1D542",
"< c #FF7D8F",
"1 c #FFFEE8",
/* pixels */
"                ",
"       XX       ",
"      X#.X XX   ",
"       X@.X$#X  ",
"    XXXX.X@#X   ",
"   X&=-&o@>XX   ",
"  X&-;*;*O.>,X  ",
"  X=;-<-<*OX.$X ",
" X=--:-1-;&X.#X ",
" X--;-<-<&*O#X  ",
" X=;-:-:&=&+X   ",
" X-=;-;-;&O%X   ",
" X=-=;&;&+%X    ",
"  X&-&-&OXX     ",
"   XXXXXX       ",
"                "
};
