/* XPM */
static char *strawberry_48[] = {
/* columns rows colors chars-per-pixel */
"48 48 20 1 ",
"  c None",
". c #353401",
"X c #170625",
"o c #620527",
"O c #640426",
"+ c #6C1A37",
"@ c #4C4E01",
"# c #505401",
"$ c #686F0A",
"% c #76334B",
"& c #A00227",
"* c #CA042A",
"= c #D3042B",
"- c #EF1339",
"; c #FF2A51",
": c #FF5E77",
"> c #838C1A",
", c #C1D542",
"< c #FF7D8F",
"1 c #FFFEE8",
/* pixels */
"                                                ",
"                                                ",
"                                                ",
"                     XXXXXX                     ",
"                     XXXXXX                     ",
"                     XXXXXX                     ",
"                  XXX###...XXX   XXXXXX         ",
"                  XXX###...XXX   XXXXXX         ",
"                  XXX###...XXX   XXXXXX         ",
"                     XXX@@@...XXX$$$###XXX      ",
"                     XXX@@@...XXX$$$###XXX      ",
"                     XXX@@@...XXX$$$###XXX      ",
"            XXXXXXXXXXXX...XXX@@@###XXX         ",
"            XXXXXXXXXXXX...XXX@@@###XXX         ",
"            XXXXXXXXXXXX...XXX@@@###XXX         ",
"         XXX&&&===---&&&ooo@@@>>>XXXXXX         ",
"         XXX&&&===---&&&ooo@@@>>>XXXXXX         ",
"         XXX&&&===---&&&ooo@@@>>>XXXXXX         ",
"      XXX&&&---;;;***;;;***ooo...>>>,,,XXX      ",
"      XXX&&&---;;;***;;;***ooo...>>>,,,XXX      ",
"      XXX&&&---;;;***;;;***ooo...>>>,,,XXX      ",
"      XXX===;;;---<<<---<<<***oooXXX...$$$XXX   ",
"      XXX===;;;---<<<---<<<***oooXXX...$$$XXX   ",
"      XXX===;;;---<<<---<<<***oooXXX...$$$XXX   ",
"   XXX===------:::---111---;;;&&&XXX...###XXX   ",
"   XXX===------:::---111---;;;&&&XXX...###XXX   ",
"   XXX===------:::---111---;;;&&&XXX...###XXX   ",
"   XXX------;;;---<<<---<<<&&&***ooo###XXX      ",
"   XXX------;;;---<<<---<<<&&&***ooo###XXX      ",
"   XXX------;;;---<<<---<<<&&&***ooo###XXX      ",
"   XXX===;;;---:::---:::&&&===&&&+++XXX         ",
"   XXX===;;;---:::---:::&&&===&&&+++XXX         ",
"   XXX===;;;---:::---:::&&&===&&&+++XXX         ",
"   XXX---===;;;---;;;---;;;&&&ooo%%%XXX         ",
"   XXX---===;;;---;;;---;;;&&&ooo%%%XXX         ",
"   XXX---===;;;---;;;---;;;&&&ooo%%%XXX         ",
"   XXX===---===;;;&&&;;;&&&+++%%%XXX            ",
"   XXX===---===;;;&&&;;;&&&+++%%%XXX            ",
"   XXX===---===;;;&&&;;;&&&+++%%%XXX            ",
"      XXX&&&---&&&---&&&oooXXXXXX               ",
"      XXX&&&---&&&---&&&oooXXXXXX               ",
"      XXX&&&---&&&---&&&oooXXXXXX               ",
"         XXXXXXXXXXXXXXXXXX                     ",
"         XXXXXXXXXXXXXXXXXX                     ",
"         XXXXXXXXXXXXXXXXXX                     ",
"                                                ",
"                                                ",
"                                                "
};
