/* XPM */
static char *_a8061d08364473fe82b03d667fb7914FKxnwr6MbhkFEsPy[] = {
/* columns rows colors chars-per-pixel */
"16 16 17 1 ",
"  c None",
". c #170625",
"X c #362939",
"o c #524654",
"O c #CE0A19",
"+ c #FF2E3E",
"@ c #867B35",
"# c #825962",
"$ c #8B7F7E",
"% c #C2C04E",
"& c #F6FE6D",
"* c #A88B82",
"= c #B4A8A0",
"- c #FF8F91",
"; c #FFBBB5",
": c #DFD9C8",
"> c #FFFEE8",
/* pixels */
"                ",
"                ",
"    ........    ",
"   .$:>>:>:$.   ",
"  .$:oXX...:$.  ",
"  .=o>>;&%@.=.  ",
"  .:X;;-+@@X:.  ",
"  .:oO++#*#o>.  ",
"  .=:oX..Xo>:.  ",
"  .:=:>>>>>:>.  ",
"  .$:$:>:>>>>.  ",
"  .=$:>=>:>>:.  ",
"  .$:=:>:>>:$.  ",
"   .$:$:=:=$.   ",
"    ........    ",
"                "
};
