/* XPM */
static char *_102e7f9274740c1ade7c5ccb95acf0fqW1KhqPl2dZI1noV[] = {
/* columns rows colors chars-per-pixel */
"16 16 16 1 ",
"  c None",
". c #170625",
"X c #533407",
"o c #A80011",
"O c #A71B29",
"+ c #A7303C",
"@ c #C00F0E",
"# c #DA130E",
"$ c #E9160E",
"% c #FF3C0E",
"& c #95640E",
"* c #FF6D2B",
"= c #AF8513",
"- c #D4A40F",
"; c #FFA262",
": c #FFCC84",
/* pixels */
"                ",
"                ",
"    ..  .  .    ",
"   .&X..X..-.   ",
" ..&..X&X=-.    ",
".X.-.oo.&.o@.   ",
" .&.Oo@$$@$$%.  ",
"  .Oo@$%*%%*;@. ",
"  .Oo@#$%*;:*$. ",
"  .+o@#$$%%*%$. ",
"  .+o@##$$%%$@. ",
"   .Oo@##$$$#.  ",
"   .+Oo@####@.  ",
"    ..+O@@@..   ",
"      .....     ",
"                "
};
