/* XPM */
static char *bc93659cc06848b0bdf0c6ae835a58ab17rJhCfY07m1ZmUe[] = {
/* columns rows colors chars-per-pixel */
"64 64 137 2 ",
"   c None",
".  c #2C2C2A",
"X  c #302F2B",
"o  c #3D3827",
"O  c #343129",
"+  c #3A3629",
"@  c #423D2D",
"#  c #2D5627",
"$  c #235728",
"%  c #2F5728",
"&  c #245C29",
"*  c #335A2A",
"=  c #25602A",
"-  c #29652C",
";  c #2D6B2D",
":  c #326F2F",
">  c #2F702F",
",  c #30712F",
"<  c #2B6530",
"1  c #2E6C34",
"2  c #306E36",
"3  c #2F7030",
"4  c #337531",
"5  c #367B32",
"6  c #387E33",
"7  c #34753A",
"8  c #377B39",
"9  c #387C3D",
"0  c #46402E",
"q  c #524724",
"w  c #554924",
"e  c #5B4E23",
"r  c #5A4E2A",
"t  c #5E5129",
"y  c #625426",
"u  c #625428",
"i  c #675829",
"p  c #6B5B2B",
"a  c #705F2D",
"s  c #756431",
"d  c #796733",
"f  c #7C6A35",
"g  c #7E6C39",
"h  c #3A7F40",
"j  c #826F3A",
"k  c #398136",
"l  c #3A8138",
"z  c #3A8039",
"x  c #3B8238",
"c  c #3B8338",
"v  c #3B8339",
"b  c #3B823B",
"n  c #3C8439",
"m  c #3C853A",
"M  c #3D853B",
"N  c #3D863C",
"B  c #3E873C",
"V  c #3E863E",
"C  c #3E863F",
"Z  c #3E883D",
"A  c #3E883E",
"S  c #3F883F",
"D  c #3F893F",
"F  c #3B8041",
"G  c #3C8342",
"H  c #3D8343",
"J  c #3D8540",
"K  c #3D8441",
"L  c #3E8640",
"P  c #3D8443",
"I  c #3E8643",
"U  c #3E8544",
"Y  c #3E8645",
"T  c #3F8745",
"R  c #3F8840",
"E  c #3F8845",
"W  c #408A40",
"Q  c #408B41",
"!  c #418B41",
"~  c #408B42",
"^  c #418B42",
"/  c #408B43",
"(  c #418B43",
")  c #418C43",
"_  c #418D43",
"`  c #428D43",
"'  c #408945",
"]  c #418B45",
"[  c #408947",
"{  c #408A47",
"}  c #418A47",
"|  c #418B47",
" . c #428D44",
".. c #428E44",
"X. c #438F45",
"o. c #418C46",
"O. c #428E46",
"+. c #438E46",
"@. c #438F46",
"#. c #438F47",
"$. c #428C48",
"%. c #438E49",
"&. c #438E4A",
"*. c #438F4A",
"=. c #449046",
"-. c #449047",
";. c #449147",
":. c #449148",
">. c #459149",
",. c #459248",
"<. c #459349",
"1. c #44904A",
"2. c #44904B",
"3. c #45924A",
"4. c #45934A",
"5. c #46934A",
"6. c #46934B",
"7. c #46944B",
"8. c #47954B",
"9. c #45914C",
"0. c #45924C",
"q. c #46934D",
"w. c #47954C",
"e. c #47944D",
"r. c #47964C",
"t. c #48964D",
"y. c #48974D",
"u. c #48964E",
"i. c #48974E",
"p. c #48964F",
"a. c #48974F",
"s. c #48984F",
"d. c #49984F",
"f. c #49994F",
"g. c #499950",
"h. c #4A9950",
"j. c #4A9A51",
/* pixels */
"                            ; ;                               ; -                               ; -                             ",
"                          9._ 5 4                           %.X.6 4                           Y <.6 5                           ",
"                        p.j.j.k 6 4                       <.j.j.x 6 5                       [ j.j.z 6 6                         ",
"                      j.j.j.j.j.6 6 =                   p.j.j.j.j.6 6 -                   %.j.j.j.j.6 6 -                       ",
"                    < j.j.j.j.j._ 6 6 $               & j.j.j.j.j.;.6 6 &               $ j.j.j.j.j.<.6 6 &                     ",
"                    - 7.j.Z j.j.x m X.$               & p.j.W j.j.z k 7.&               $ 5.j.` j.j.n 6 e.-                     ",
"                  - <.j.j.<.7.X.6 k j.4 &           & ;.j.j.t.;.;.k k j.5 $           & ;.j.d.t.X.<.6 6 d.5 &                   ",
"                  Y j.W j.j.B 6 6 6 6 6 &           U j.( p.d.W 6 6 6 6 5 =           b j._ p.j.X.6 6 6 6 6 -                   ",
"                Y j.d.6 j.<.6 6 6 6 6 6 6 &       h j.d.6 d.,.6 6 6 6 6 6 6 -       9 j.j.k p.<.6 6 6 6 k 5 5 -                 ",
"              5 B <.6 6 B 6 6 6 6 B t.6 k , 8 6 4 6 <.6 6 m x 6 6 6 k f.k 6 4 8 6 4 5 <.6 6 m x 6 6 6 k f.k k 6 &               ",
"            $ j.6 6 6 k j.z 6 6 6 6 p.6 5 <.j.W 6 4 5 6 6 j.m 6 6 6 k 7.6 4 } j.X.6 4 5 6 6 j.Z 6 6 6 6 7.k 5 6 = $             ",
"              9 j.H B 6 6 6 j.6 6 6 6 & p.d.j.j.6 6 4 6 x 6 6 j.6 6 6 6 = %.j.j.j.6 6 5 5 m 6 6 f.6 6 6 k - 4 ; &               ",
"            $ = & = 1 k 6 j.j.6 , 6 5 f.j.j.j.j.X.6 6 & k 6 f.f.6 , 6 6 <.j.j.j.j.<.6 6 = 5 6 j.f.6 5 5 5 & = $ = $             ",
"          $ Z 5 5 6 , & & 9.k 6 = & & - f.j.j.j.j.6 6 & & & } k 6 - = & - p.j.j.j.j.6 6 - & & B k k - = = = = = = = $           ",
"          %.6 Z j.5 6 4 6 - - - & = & j.j.j.;.j.X.6 j.X.$ 6 - - - & = & p.j.j.X.j.X.6 j.<.& 5 - - - & = = = = = = = =           ",
"        $ X.; m m 6 6 6 6 6 - & - & ;.j.( j.;.( 6 6 6 ( - 5 6 - = = = X.j._ j.5.W 6 6 6 ( - 2 6 - = = = = 5 - = - k = $         ",
"        ( k 6 6 6 6 6 6 6 6 - & & H j.f.f.j.;.6 6 6 6 6 6 = 5 - = & 9 j.f.t.j.7.6 6 6 6 6 6 - 5 ; & = = = 4 6 = = 4 5 =         ",
"      $ 4 5 6 B 6 6 6 6 6 - - - 4 j.p.6 6 <.6 6 6 6 m 6 6 6 & - - 1 j.f.k 6 ;.6 6 6 6 m 6 6 5 & - - & = = = 6 = = = = = $       ",
"      1 k 6 <.p.6 6 5 6 4 &.( 6 2 5 6 6 n j.6 6 6 6 p.p.6 4 } _ 6 , 5 6 6 x j.6 6 6 6 7.j.6 4 H =.6 5 & = = = - = = 5 - &       ",
"    & 6 5 4 6 6 6 6 - 5 d.j.j.6 6 , <.6 p.n 6 6 6 6 6 6 - %.j.j.k 6 4 e.k <.m k k 6 6 6 6 - ' j.f.k 6 6 = = = 6 = = - 5 = $     ",
"    & = = 6 6 6 6 = 4 d.j.j.j.f.6 6 = j.6 6 j.W 6 ; 6 5 <.j.j.j.d.6 6 & f.c 6 f._ 6 - 6 6 } j.j.f.f.6 6 - & = = = = = = = &     ",
"        = - = : 4 = - j.j.j.j.j._ 6 5 & 6 %.j.k 6 - 6 & j.j.j.j.d.;.6 6 $ k E f.x 6 = 6 & j.j.j.f.d.;.6 6 & = = & = = $         ",
"            $ - & - - ;.j.( f.j.k m ( $ & - 5 6 , & & & <.j._ j.d.c x ;.& & - 5 k , & = & X.f.;.j.f.B 6 ;.& & = = $             ",
"                  ; ;.j.f.;.p.;.k k j.: - 6 - & & = & X.j.j.;.7.t.6 k d., - 6 - & & = & _ j.j.7.;.p.6 k f.5 &                   ",
"                  F j.X.f.j.Z 6 6 6 6 5 & 6 6 = = & 9 j.X.p.j.W 6 6 6 6 6 & 5 6 - & = 7 j.;.7.f._ 6 6 6 6 6 =                   ",
"                F j.j.6 f.;.6 6 6 6 6 k 6 & - & & 9 j.j.6 f.7.6 6 6 6 6 6 6 & ; & = 7 j.j.k p.t.6 6 6 6 6 6 6 =                 ",
"              4 Z 7.5 k m k 6 6 6 B 7.6 6 4 5 6 , z 7.6 6 z k 6 6 6 c f.6 6 5 4 6 , 5 t.k 6 k k 6 6 6 k f.k k 6 &               ",
"            $ j.k 6 6 k j.z 6 6 6 6 f.6 5 %.j.( 6 4 5 6 6 j.B 6 6 6 6 f.6 5 ' j.X.6 4 5 6 6 j.W 6 6 6 6 y.c 5 k = $             ",
"              F f.Y z 6 k 6 f.6 6 6 6 = <.j.j.p.6 6 4 k k k 6 f.6 6 6 6 - } j.j.j.6 6 5 6 z k 6 f.6 6 6 5 - , > =               ",
"            $ & < & 4 k 6 j.j.5 , 6 5 %.j.j.j.j.X.6 5 & k 6 f.j.6 , 6 6 } j.j.j.j.;.6 6 = 6 6 f.f.6 5 6 k $ = & = $             ",
"          $ B 5 4 6 > - & 9.z 6 - & - 2 j.j.j.j.j.6 6 - - = X.z 6 - & - 2 p.j.j.j.j.6 6 - - & U x 6 - & - = = = = = $           ",
"          %.6 B j.6 6 , 6 & ; ; & = = f.j.j.<.j._ 6 j._ & 5 - - ; & = & p.j.j.X.j.;.6 j.X.& 5 - ; ; & = = = = = = = =           ",
"          B , Z B 6 6 6 6 6 - = = & _ j.;.j.` _ 6 6 k _ = 5 6 - = = = W j.=.d.;._ 6 6 k _ - 4 6 - = = = = 5 = = - k =           ",
"        X.k 6 6 6 6 6 6 6 6 - & & 9 j.f.f.j.7.6 6 6 6 6 6 & 5 ; = = 7 f.j.t.j.t.6 6 6 6 6 6 & 5 ; = = = & 5 k = = 4 4 =         ",
"      $ 4 6 5 m 6 6 6 6 6 - & - 5 j.f.6 6 t.6 6 6 6 x 6 6 6 & & & 2 f.f.6 6 t.6 6 6 6 k 6 6 6 = & - = = = = k = = = = = $       ",
"      - k 6 ;.f.6 6 5 6 6 %.Z 6 2 5 6 6 6 f.6 6 6 6 f.p.6 6 U _ 6 , 6 6 6 k f.6 6 6 6 f.f.6 6 9 X.6 4 = = = = = = = k = &       ",
"    & z 6 5 6 k 6 6 - 6 5.j.j.6 5 , <.6 p.m 6 6 6 k 6 k - } j.j.6 6 4 p.6 t.Z 6 k 6 6 6 k - H j.j.6 6 5 = & & 6 = = - 5 = $     ",
"    & - = 6 6 6 6 = 5 %.j.j.j.f.6 6 & j.6 6 f.( 6 ; 6 6 } j.j.j.f.6 6 & p.x 6 f._ 6 ; 6 6 U j.j.j.p.6 6 = = = - = = = = = &     ",
"        - - - 2 4 = - j.j.j.j.d.W 6 6 & 6 <.f.k k = 6 $ j.j.j.j.j.( 6 6 & 5 ( j.c 6 = 5 & j.j.j.j.j.` 6 6 & & = & = = &         ",
"            $ - = & - X.j.` j.f.n n C & & = 6 6 > & & = _ f.;.j.j.m k } & & - 5 k , & & & ( j.;.j.j.W 6 _ - & = = $             ",
"              $ & ; } j.j._ p.t.6 k j.; ; 6 - $ & = = ( j.j.X.7.t.6 k d.> ; 6 = & & = & W j.j.;.<.p.6 6 j.4 & $ $               ",
"                  9 j.;.f.j.m 6 6 6 6 6 & 5 6 = = & 7 j.;.p.j.W 6 6 6 6 6 & 5 6 = = & 4 f.7.7.j._ 6 6 6 6 6 =                   ",
"                9 j.f.k j.p.6 6 6 6 6 6 6 & - = & 7 j.j.k j.p.6 6 6 6 6 6 6 & ; = & 2 j.f.x f.p.6 6 6 6 6 6 6 =                 ",
"              , Z f.6 6 6 6 6 6 6 B p.6 6 6 & = ; B j.6 6 6 6 6 6 6 c d.6 6 6 & = ; x p.k 6 6 k 6 6 6 k j.6 6 6 =               ",
"            $ j.6 6 6 k f.c 6 6 5 k j.k 6 6 = $ j.5 6 6 k f.B k 6 6 6 f.k 6 k = $ j.6 6 5 k f.W 6 6 6 6 f.c k k = $             ",
"              G f.E k 6 c 6 <.6 k 5 k = 5 ; & = 8 f.X.6 k k k 8.6 6 6 6 ; , ; & = 7 f.<.6 k z 6 t.6 6 6 k - , > &               ",
"              & 1 & 7 m k f.f.k , k 5 & = $ & & & 1 & 4 B k y.f.6 , k 6 & & & & & & 1 & 1 _ 6 7.f.6 5 6 k & & & =               ",
"            B 5 , 5 : ; & <.k 6 - = - = = = & B 5 , 6 , - = =.k 6 ; & ; = = = = & ; , k , - - } m 6 ; $ - = = = = =             ",
"          %.6 m j.6 6 ; 6 = : ; & = = = = = U k c f.5 k ; 6 = ; ; & = = = = = = = = y.k 6 > 5 = : , & = = = = = = = =           ",
"          n 4 Z Z 6 6 6 6 6 = = = = = k = = z 4 m _ 5 k 6 6 6 = = = = = k = = = 5 & B k 6 6 6 6 = = = = = 6 = = = k =           ",
"        <.x 6 6 6 6 6 6 k k - = = = = 5 5 X.m 5 6 6 k 6 6 6 6 ; = = = = 6 6 = = 5 , = , 6 6 6 6 ; = = = = 4 5 = = 6 4 =         ",
"      $ 5 6 6 k 6 6 6 6 6 - = = = = = = & , 5 k k 6 6 6 k k - = = = = & = 6 = = = = = & 6 6 k ; = = = = = = k = = = = = $       ",
"      & 6 6 ;.f.6 k 6 k 6 5 = = = = = = & c 5 _ f.5 6 6 6 6 6 = = = = = = = = = = 5 = = 5 k k 6 = = = = = = = = = = 5 = $       ",
"    = m 6 5 k k 6 k = k 6 6 - = = = = & k 5 5 k k k k = 6 6 k ; = = = = = = k = = > 5 = & 5 5 k > = = = = = = k = = ; 5 = &     ",
"    & - & 5 6 k 6 - k 5 ; > = = = = = $ - = 5 k 6 6 - k 6 ; > = = = = = = = - = = = & = $ k 3 4 = = = = = = = = = = = = = $     ",
"        1 ; - ; 4 = ; = = = = = = = = = & ; ; - ; 5 = ; = = = = = = = = = = = & = = & & ; = = = = = = = = = = = & = = &         ",
"            & - = = > = = = = = = = = = & = = $ ; & - ; = = = = = = = = = & = = $ = = & 1 - = = = = = = = = = = = $             ",
"              & & , 4 = & , = = = & = = & $ $   $ & , , = = , = = = & = = & $ $   $ $ 4 , = & 3 = = = & = = & $ $               ",
"                    $ * , - * * = & # $               & * , - * # = = # $               & * 4 < * # = & # $                     ",
"                      j j j s i i e q                   g j j s y y e e                   s j f s y y e e                       ",
"                      j j j s p i e q                   g j g s i i e w                   s j f s y y e e                       ",
"                    + j d d s p e e e .               X j d d s i e e e X               . g f f s y e e e O                     ",
"                    0 @ y d s p e q + +               0 @ t d s p e w o o               @ @ r f s a e e o o                     ",
"                            0 +                               0 o                               @ o                             "
};
