/* XPM */
static char *trees_128[] = {
/* columns rows colors chars-per-pixel */
"128 128 84 1 ",
"  c None",
". c #2C2C2A",
"X c #302F2B",
"o c #3D3827",
"O c #343129",
"+ c #3A3629",
"@ c #423D2D",
"# c #2D5627",
"$ c #235728",
"% c #245C29",
"& c #335A2A",
"* c #25602A",
"= c #29652C",
"- c #2D6B2D",
"; c #326F2F",
": c #2F702F",
"> c #30712F",
", c #2B6530",
"< c #2E6C34",
"1 c #306E36",
"2 c #2F7030",
"3 c #337531",
"4 c #367B32",
"5 c #387E33",
"6 c #34753A",
"7 c #377B39",
"8 c #387C3D",
"9 c #46402E",
"0 c #524724",
"q c #554924",
"w c #5B4E23",
"e c #5A4E2A",
"r c #5E5129",
"t c #625426",
"y c #675829",
"u c #6B5B2B",
"i c #705F2D",
"p c #756431",
"a c #796733",
"s c #7C6A35",
"d c #7E6C39",
"f c #3A7F40",
"g c #826F3A",
"h c #398136",
"j c #3A8039",
"k c #3B8238",
"l c #3B8338",
"z c #3B823B",
"x c #3C8439",
"c c #3C853A",
"v c #3E873C",
"b c #3E863F",
"n c #3E883D",
"m c #3B8041",
"M c #3C8342",
"N c #3D8343",
"B c #3E8544",
"V c #3E8645",
"C c #3F8845",
"Z c #408A40",
"A c #418B43",
"S c #418D43",
"D c #428D43",
"F c #408945",
"G c #408947",
"H c #418A47",
"J c #438F45",
"K c #438E49",
"L c #438E4A",
"P c #449046",
"I c #449147",
"U c #459248",
"Y c #459349",
"T c #46934A",
"R c #46944B",
"E c #47954B",
"W c #45914C",
"Q c #47944D",
"! c #48964D",
"~ c #48974D",
"^ c #48964F",
"/ c #49984F",
"( c #49994F",
") c #4A9A51",
/* pixels */
"                            ----                              --==                              --==                            ",
"                            ----                              --==                              --==                            ",
"                          YYJJ4433                          KKJJ5533                          VVYY5544                          ",
"                          YYJJ4433                          KKJJ5533                          VVYY5544                          ",
"                        ^^))))hh5533                      YY))))cc5544                      JJ))))cc5555                        ",
"                        ^^))))hh5533                      YY))))cc5544                      JJ))))cc5555                        ",
"                      ))))))))))5555**                  ^^))))))))5555==                  KK))))))))5555==                      ",
"                      ))))))))))5555**                  ^^))))))))5555==                  KK))))))))5555==                      ",
"                    ,,))))))))))JJ5555$$              %%))))))))))II5555%%              $$))))))))))YY5555%%                    ",
"                    ,,))))))))))JJ5555$$              %%))))))))))II5555%%              $$))))))))))YY5555%%                    ",
"                    ==YY))nn))))ccccJJ$$              %%^^))JJ))))cchhYY%%              $$YY))JJ))))cc55YY==                    ",
"                    ==YY))nn))))ccccJJ$$              %%^^))JJ))))cchhYY%%              $$YY))JJ))))cc55YY==                    ",
"                  ==YY))))YYYYJJ55hh))33%%          %%II))))^^IIIIhhhh))44$$          %%II))//^^JJYY5555//44%%                  ",
"                  ==YY))))YYYYJJ55hh))33%%          %%II))))^^IIIIhhhh))44$$          %%II))//^^JJYY5555//44%%                  ",
"                  VV))JJ))))cc5555555555%%          VV))JJ^^^^ZZ5555555544**          cc))JJ^^))JJ5555555555==                  ",
"                  VV))JJ))))cc5555555555%%          VV))JJ^^/^nZ5555555544**          cc))JJ^^))JJ5555555555==                  ",
"                VV))//55))YY55555555555555%%      ff))//55//YY55555555555555==      88))))hh^^YY55555555hh4444==                ",
"                VV))//55))YY55555555555555%%      ff))//55//YY55555555555555==      88))))hh^^YY55555555hh4444==                ",
"              44ccYY5555cc55555555cc^^55hh>>77553355YY5555cccc555555hh//hh553377553344YY5555cccc555555hh//hhhh55%%              ",
"              44ccYY5555cc55555555cc^^55hh>>77553355YY5555cccc555555hh//hh553377553344YY5555cccc555555hh//hhhh55%%              ",
"            $$))555555hh))cc55555555^^5544YY))JJ5533445555))cc555555hhYY5533JJ))JJ5533445555))nn55555555YYhh4455**$$            ",
"            $$))555555hh))cc55555555^^5544YY))JJ5533445555))cc555555hhYY5533JJ))JJ5533445555))nn55555555YYhh4455**$$            ",
"              88))VVcc555555))55555555%%^^//))))55553355cc5555))55555555**KK))))))55554444cc5555//555555hh==33--%%              ",
"              88))VVcc555555))55555555%%^^//))))55553355cc5555))55555555**KK))))))55554444cc5555//555555hh==33--%%              ",
"            $$**%%**<<hh55))))55>>5544//))))))))JJ5555%%hh55////55>>5555YY))))))))YY5555**4455))//55444444%%**$$**$$            ",
"            $$**%%**<<hh55))))55>>5544//))))))))JJ5555%%hh55////55>>5555YY))))))))YY5555**4455))//55444444%%**$$**$$            ",
"          $$nn444455>>%%%%YYhh55**%%%%==//))))))))5555%%%%%%JJhh55==**%%==^^))))))))5555==%%%%cchhhh==**************$$          ",
"          $$nn444455>>%%%%YYhh55**%%%%==//))))))))5555%%%%%%JJhh55==**%%==^^))))))))5555==%%%%cchhhh==**************$$          ",
"          KK55nn))44553355======%%**%%))))))II))JJ55))JJ$$55======%%**%%^^))))JJ))JJ55))YY%%44======%%****************          ",
"          KK55nn))44553355======%%**%%))))))II))JJ55))JJ$$55======%%**%%^^))))JJ))JJ55))YY%%44======%%****************          ",
"        $$JJ--cccc5555555555==%%==%%II))JJ))IIJJ555555JJ==4455==******JJ))JJ))YYJJ555555JJ==1155==********44==**==hh**$$        ",
"        $$JJ--cccc5555555555==%%==%%II))JJ))IIJJ555555JJ==4455==******JJ))JJ))YYJJ555555JJ==1155==********44==**==hh**$$        ",
"        JJhh5555555555555555==%%%%VV))////))II555555555555**44==**%%88))//^^))YY555555555555==44--%%******3355****3344**        ",
"        JJhh5555555555555555==%%%%VV))////))II555555555555**44==**%%88))//^^))YY555555555555==44--%%******3355****3344**        ",
"      $$334455cc5555555555======33))^^5555YY55555555cc555555%%====<<))//hh55II55555555cc555544%%====%%******55**********$$      ",
"      $$334455cc5555555555======33))^^5555YY55555555cc555555%%====<<))//hh55II55555555cc555544%%====%%******55**********$$      ",
"      <<hh55YY^^5555445533KKJJ5511445555cc))55555555^^^^5533JJJJ55>>445555cc))55555555YY))4533VVII5544%%******==****44==%%      ",
"      <<hh55YY^^5555445533KKJJ5511445555cc))45555555^^^^5533JJJJ55>>445555cc))55555555YY))4533VVII5544%%******==****44==%%      ",
"    %%55443355555555==44//))))5555>>YY55^^cc455555555555==KK))))hh5533YYhhYYcchhhh55555555==JJ))//hh5555******55****==44**$$    ",
"    %%55443355555555==44//))))5555>>YY55^^cc555555555555==KK))))hh5533YYhhYYcchhhh55555555==JJ))//hh5555******55****==44**$$    ",
"    %%****55555555**33//))))))//5555**))5555))JJ55--5544YY))))))//5555%%//cc55//JJ55==5555JJ))))////5555==%%**************%%    ",
"    %%****55555555**33//))))))//5555**))5555))JJ55--5544YY))))))//5555%%//cc55//JJ55==5555JJ))))////5555==%%**************%%    ",
"        **==**;;33**==))))))))))JJ5544%%55KK))hh55==55%%))))))))//II5555$$hhCC//cc55**55%%))))))////II5555%%****%%****$$        ",
"        **==**;;33**==))))))))))JJ5544%%55KK))hh55==55%%))))))))//II5555$$hhCC//cc55**55%%))))))////II5555%%****%%****$$        ",
"            $$==%%====II))JJ//))hhccJJ$$%%==4455>>%%%%%%YY))JJ))//ccccII%%%%==44hh>>%%**%%JJ//II))//cc55II%%%%****$$            ",
"            $$==%%====II))JJ//))hhccJJ$$%%==4455>>%%%%%%YY))JJ))/^ccccII%%%%==44hh>>%%**%%JJ//II))//cc55II%%%%****$$            ",
"                  --II))//II^^IIhhhh));;==55==%%%%**%%JJ))))IIYY^^55hh//>>==55==%%%%**%%JJ))))YYII^^55hh//44%%                  ",
"                  --II))//II^^IIhhhh));;==55==%%%%**%%JJ))))IIYY^^55hh//>>==55==%%%%**%%JJ))))YYII^^55hh//44%%                  ",
"                  VV))JJ//))nn5555555544%%5555****%%88))JJ^^))JJ5555555555%%4455==%%**66))IIYY//JJ5555555555**                  ",
"                  VV))JJ//))nn5555555544%%5555****%%88))JJ^^))JJ5555555555%%4455==%%**66))IIYY//JJ5555555555**                  ",
"                VV))))54//II5555555555hh55%%==%%%%88))))55//YY55555555555555%%--%%**66))))hh^^^^55555555555555**                ",
"                VV))))55//II5555555555hh55%%==%%%%88))))55//YY55555555555555%%--%%**66))))hh^^YY55555555555555**                ",
"              33nnYY44hhcchh555555ccYY5555334455>>ccYY5555cchh455555cc//5555443355>>44^^hh55hhhh555555hh//hhhh55%%              ",
"              33nnYY44hhcchh555555ccYY5555334455>>ccYY5555cchh555555cc//5555443355>>44^^hh55hhhh555555hh//hhhh55%%              ",
"            $$))hh5555hh))cc55555555//5544KK))JJ5533445555))cc55555555//5544JJ))JJ5533445555))JJ55555555^^cc44hh**$$            ",
"            $$))hh5555hh))cc55555555//5544KK))JJ5533445555))cc55555555//5544JJ))JJ5533445555))JJ55555555^^cc44hh**$$            ",
"              VV//VVcc55hh55//55555555**YY))))^^555533hhhhhh55//55555555==JJ))))))55554455cchh55//55555544==>>::**              ",
"              VV//VVcc55hh55//55555555**YY))))^^555533hhhhhh55//55555555==JJ))))))55554455cchh55//55555544==>>::**              ",
"            $$%%,,%%33hh55))))44>>5544KK))))))))JJ5544%%hh55//))55>>5555JJ))))))))II5555**5555////554455hh$$**%%**$$            ",
"            $$%%,,%%33hh55))))44>>5544KK))))))))JJ5544%%hh55//))55>>5555JJ))))))))II5555**5555////554455hh$$**%%**$$            ",
"          $$cc443355::==%%YYcc55==%%==11))))))))))5555====%%JJcc55==%%==11^^))))))))5555====%%VVcc55==%%==**********$$          ",
"          $$cc443355::==%%YYcc55==%%==11))))))))))5555====*%JJcc55==%%==11^^))))))))5555====%%VVcc55==%%==**********$$          ",
"          KK55cc))5555>355%%----%%****//))))YY))JJ55))JJ%%44====--%%**%%^^))))JJ))II55))JJ%%44==----%%****************          ",
"          KK55cc))5555>>55%%----%%****//))))YY))JJ55))JJ%%44====--%%**%%^^))))JJ))II55))JJ%%44==----%%****************          ",
"          cc>>nncc5555555555==****%%JJ))II))JJJJ5555hhJJ**4455==******JJ))II//IIJJ5555hhJJ==3355==********44****==hh**          ",
"          cc>>nncc5555555555==****%%JJ))II))JJJJ5555hhJJ**4455==******JJ))II//IIJJ5555hhJJ==3355==********44****==hh**          ",
"        JJhh5555555555555555==%%%%88))////))YY555555555555%%44--****66//))^^))^^555555555555%%44--******%%44hh****3333**        ",
"        JJhh5555555555555555==%%%%88))////))YY555555555555%%44--****66//))^^))^^555555555555%%44--******%%44hh****3333**        ",
"      $$335544cc5555555555==%%==44))//5555^^55555555cc555555%%%%%%11////5555^^55555555hh555555**%%==********hh**********$$      ",
"      $$335544cc5555555555==%%==44))//5555^^55555555cc555555%%%%%%11////5555^^55555555hh555555**%%==********hh**********$$      ",
"      ==hh55II//5555445555KKnn551144555555//55555555//^^5555VVJJ55>>555555hh//55555555////555588JJ5533**************hh**%%      ",
"      ==hh55II//5555445555KKnn551144555555//55555555//^^5555VVJJ55>>555555hh//55555555////555588JJ5533**************hh**%%      ",
"    %%cc554455hh5555==55YY))))5544>>YY55^^cc555555hh55hh==JJ))))555533^^55^^nn55hh555555hh==VV))))555544**%%%%55****==44**$$    ",
"    %%cc554455hh5555==55YY))))5544>>YY55^^cc555555hh55hh==JJ))))555533^^55^^nn55hh555555hh==VV))))555544**%%%%55****==44**$$    ",
"    %%==%%55555555**44KK))))))//5555%%))5555//JJ55--5555JJ))))))//5555%%^^cc55//JJ55--5555VV))))))^^5555******==**********%%    ",
"    %%==*%55555555**44KK))))))//5555%%))5555//JJ55--5555JJ))))))//5555%%^^cc55//JJ55--5555VV))))))^^5555******==**********%%    ",
"        ======1133**==))))))))//JJ5555%%55YY//hhhh**55$$))))))))))JJ5555%%44JJ))cc55**44%%))))))))))JJ5555%%%%**%%****%%        ",
"        ======1133**==))))))))//JJ5555%%55YY//hhhh**55$$))))))))))JJ5555%%44JJ))cc55**44%%))))))))))JJ5555%%%%**%%****%%        ",
"            $$==**%%==JJ))JJ))//cccccc%%%%**5555::%%%%**JJ//II))))cchhJJ%%%%==44hh>>%%%%%%JJ))II))))JJ55JJ==%%****$$            ",
"            $$==**%%==JJ))JJ))//cccccc%%%%**5555::%%%%**JJ//II))))cchhJJ%%%%==44hh>>%%%%%%JJ))II))))JJ55JJ==%%****$$            ",
"              $$%%--JJ))))JJ^^^^55hh))----55==$$%%*%**JJ))))JJYY^^55hh//::--55**%%%%**%%JJ))))IIYY^^5555))33%%$$$$              ",
"              $$%%--JJ))))JJ^^^^55hh))----55==$$%%*%**JJ))))JJYY^^55hh//::--55**%%%%**%%JJ))))IIYY^^5555))33%%$$$$              ",
"                  88))II//))cc5555555555%%4455****%%66))II^^))JJ5555555555%%4455****%%33//YYYY))JJ5555555555**                  ",
"                  88))II//))cc5555555555%%4455****%%66))II^^))JJ5555555555%%4455****%%33//YYYY))JJ5555555555**                  ",
"                88))//hh))^^55555555555555%%==**%%66))))hh))^^55555555555555%%--**%%11))//cc//^^55555555555555**                ",
"                88))//hh))^^55555555555555%%==**%%66))))hh))^^55555555555555%%--**%%11))//cc//^^55555555555555**                ",
"              >>nn//55555555555555cc^^555555%%**--cc))55555555555555cc//555555%%**--cc^^hh5555hh555555hh))555555**              ",
"              >>nn//55555555555555cc^^555555%%**--cc))55555555555555cc//555555%%**--cc^^hh5555hh555555hh))555555**              ",
"            $$))555555hh//cc555544hh))hh5555**$$))445555hh//cchh555555//hh55hh**$$))555544hh//JJ55555555//cchhhh**$$            ",
"            $$))555555hh//cc555544hh))hh5555**$$))445555hh//cchh555555//hh55hh**$$))555544hh//JJ55555555//cchhhh**$$            ",
"              VV//CChh55cc55YY55hh44hh**44--%%**77//JJ55hhhhhhYY55555555-->>--%%**66//YY55hhcc55^^555555hh==>>::%%              ",
"              VV//CChh55cc55YY55hh44hh**44--%%**77//JJ55hhhhhhYY55555555-->>--%%**66//YY55hhcc55^^555555hh==>>::%%              ",
"              %%<<%%66cchh////hh>>hh44%%**$$%%%%%%<<%%33cchh^^//55>>hh55%%%%%%%%%%%%<<%%<<JJ54YY//554455hh%%%%%%**              ",
"              %%<<%%66cchh////hh>>hh44%%**$$%%%%%%<<%%33cchh^^//55>>hh55%%%%%%%%%%%%<<%%<<JJ55YY//554455hh%%%%%%**              ",
"            cc44>>44;;--%%YYhh55==**==******%%cc44>>55>>==**IIhh55--%%--********%%-->>hh>>====JJcc55--$$==**********            ",
"            cc44>>44;;--%%YYhh55==**==******%%cc44>>55>>==**IIhh55--%%--********%%-->>hh>>====JJcc55--$$==**********            ",
"          KK55cc))5555--55**;;--%%**********VVhhcc//44hh--55**----%%****************^^hh55::44**;;>>%%****************          ",
"          KK55cc))5555--55**;;--%%**********VVhhcc//44hh--55**----%%****************^^hh55::44**;;>>%%****************          ",
"          cc33nnnn5555555555**********hh****cc33ccJJ44hh555555**********hh******44%%cchh55555555**********55******hh**          ",
"          cc33nnnn5555555555**********hh****cc33ccJJ44hh555555**********hh******44%%cchh55555555**********55******hh**          ",
"        YYcc555555555555hhhh==********4444JJcc445555hh55555555--********5555****44>>**>>55555555--********3344****5533**        ",
"        YYcc555555555555hhhh==********4444JJcc445555hh55555555--********5555****44>>**>>55555555--********3344****5533**        ",
"      $$445555hh5555555555==************%%>>44hhhh555555hhhh==********%%**55**********%%5555hh--************hh**********$$      ",
"      $$445555hh5555555555==************%%>>44hhhh555555hhhh==********%%**55**********%%5555hh--************hh**********$$      ",
"      %%5555II//55hh55hh5544************%%cc44JJ//445555555555********************44****44hhhh55********************44**$$      ",
"      %%5555II//55hh55hh5544************%%cc44JJ//445555555555********************44****44hhhh55********************44**$$      ",
"    **cc5544hhhh55hh**hh5555==********%%hh4444hhhhhhhh**5555hh--************hh****::44**%%4444hh::************hh****--44**%%    ",
"    **cc5544hhhh55hh**hh5555==********%%hh4444hhhhhhhh**5555hh--************hh****::44**%%4444hh::************hh****--44**%%    ",
"    %%==%%4455hh55==hh44--::**********$$==**44hh5555==hh55--::**************==******%%**$$hh2233**************************$$    ",
"    %%==%%4455hh55==hh44--::**********$$==**44hh5555==hh55--::**************==******%%**$$hh2233**************************$$    ",
"        <<--==--33**--******************%%----==--44**--**********************%%****%%%%--**********************%%****%%        ",
"        <<--==--33**--******************%%----==--44**--**********************%%****%%%%--**********************%%****%%        ",
"            %%==****::******************%%****$$--%%==--******************%%****$$****%%<<==**********************$$            ",
"            %%==****::******************%%****$$--%%==--******************%%****$$****%%<<==**********************$$            ",
"              %%%%>>33**%%>>******%%****%%$$$$  $$%%>>>>****>>******%%****%%$$$$  $$$$33>>**%%22******%%****%%$$$$              ",
"              %%%%>>33**%%>>******%%****%%$$$$  $$%%>>>>****>>******%%****%%$$$$  $$$$33>>**%%22******%%****%%$$$$              ",
"                    $$&&>>==&&&&**%%##$$              %%&&>>==&&##****##$$              %%&&33,,&&##**%%##$$                    ",
"                    $$&&>>==&&&&**%%##$$              %%&&>>==&&##****##$$              %%&&33,,&&##**%%##$$                    ",
"                      ggggggppyyyyww00                  ddggggppttttwwww                  ppggssppttttwwww                      ",
"                      ggggggppyyyyww00                  ddggggppttttwwww                  ppggssppttttwwww                      ",
"                      ggggggppuuyyww00                  ddggddppyyyywwqq                  ppggssppttttwwww                      ",
"                      ggggggppuuyyww00                  ddggddppyyyywwqq                  ppggssppttttwwww                      ",
"                    ++ggaaaappuuwwwwww..              XXggaaaappyywwwwwwXX              ..ddssssppttwwwwwwOO                    ",
"                    ++ggaaaappuuwwwwww..              XXggaaaappyywwwwwwXX              ..ddssssppttwwwwwwOO                    ",
"                    99@@ttaappuuww00++++              99@@rraappuuwwqqoooo              @@@@eessppiiwwwwoooo                    ",
"                    99@@ttaappuuww00++++              99@@rraappuuwwqqoooo              @@@@eessppiiwwwwoooo                    ",
"                            99++                              99oo                              @@oo                            ",
"                            99++                              99oo                              @@oo                            "
};
