/* XPM */
static char *_2ee9f83c07c4fe3fc2177eea2a9b6d1kYZ9FtFCSV5DMLnD[] = {
/* columns rows colors chars-per-pixel */
"16 16 18 1 ",
"  c None",
". c #07010F",
"X c #1C1030",
"o c #1F3E25",
"O c #485512",
"+ c #637917",
"@ c #305B43",
"# c #725144",
"$ c #81277F",
"% c #9A7A4E",
"& c #7D9926",
"* c #9CC434",
"= c #BE9C6E",
"- c #A751AC",
"; c #DDD2B6",
": c #D493D7",
"> c #FFF2D1",
", c white",
/* pixels */
"         ...    ",
"  ....  .+O+.   ",
" .+&*&..++&O+.  ",
" .&+OO&.O.+*O+. ",
".&+oO.O+@oO+&O. ",
".+o@. .+.@oO+o. ",
" .@. ..o.@oO.o. ",
"  .o.$$$$$o.@.  ",
"   .$$$$-$$..   ",
"   .$-$-:-$.    ",
"   .:;::>::.    ",
"    .;>,,>.     ",
"     .;>>..     ",
"      .#..=.    ",
"       .%=.     ",
"       X..X     "
};
