/* XPM */
static char *waffles_128[] = {
/* columns rows colors chars-per-pixel */
"128 128 21 1 ",
"  c None",
". c #170625",
"X c #A43E0E",
"o c #CE4F0E",
"O c #CF4F0E",
"+ c #CE500E",
"@ c #E9790E",
"# c #E97A0E",
"$ c #ED9828",
"% c #EF9928",
"& c #EF9929",
"* c #F09A2B",
"= c #F19B2B",
"- c #FFC237",
"; c #FAB440",
": c #FBB642",
"> c #FFDF59",
", c #FFDE5B",
"< c #FFE05B",
"1 c #FFFE62",
"2 c #FFFEBD",
/* pixels */
"                                                                                                                                ",
"                                                                                                                                ",
"                                                                                                                                ",
"                                                                                                                                ",
"                                                                                                                                ",
"                                                                                                                                ",
"                                                                                                                                ",
"                                                                                                                                ",
"                                                ................................................                                ",
"                                                ................................................                                ",
"                                                ................................................                                ",
"                                                ................................................                                ",
"                                                ................................................                                ",
"                                                ................................................                                ",
"                                                ................................................                                ",
"                                                ................................................                                ",
"                                ................-------->>>>>>>><<<<<<<<>>>>>>>>>>>>>>>>--------................                ",
"                                ................-------->>>>>>>><<<<<<<<>>>>>>>>>>>>>>>>--------................                ",
"                                ................-------->>>>>>>><<<<<<<<>>>>>>>>>>>>>>>>--------................                ",
"                                ................-------->>>>>>>><<<<<<<<>>>>>>>>>>>>>>>>--------................                ",
"                                ................-------->>>>>>>><<<<<<<<>>>>>>>>>>>>>>>>--------................                ",
"                                ................-------->>>>>>>><<<<<<<<>>>>>>>>>>>>>>>>--------................                ",
"                                ................-------->>>>>>>><<<<<<<<>>>>>>>>>>>>>>>>--------................                ",
"                                ................-------->>>>>>>><<<<<<<<>>>>>>>>>>>>>>>>--------................                ",
"                        ........-------->>>>>>>>$$$$$$$$########----------------$$$*****########<<<<<<<<--------........        ",
"                        ........-------->>>>>>>>$$$$$$$$########----------------$$$$****########<<<<<<<<--------........        ",
"                        ........-------->>>>>>>>$$$$$$$$########----------------$$$$%%**########<<<<<<<<--------........        ",
"                        ........-------->>>>>>>>$$$$$$$$########----------------$$$$%%$$########<<<<<<<<--------........        ",
"                        ........-------->>>>>>>>$$$$$$$$########----------------**$$%%%%########<<<<<<<<--------........        ",
"                        ........-------->>>>>>>>$$$$$$$$########----------------***$%%%%########<<<<<<<<--------........        ",
"                        ........-------->>>>>>>>$$$$$$$$########----------------**$$$$%$########<<<<<<<<--------........        ",
"                        ........-------->>>>>>>>$$$$$$$$########----------------**$$$$$$########<<<<<<<<--------........        ",
"                ........>>>>>>>>$$$*****########-------->>>>>>>>$$$$$$**########>>>>>>>>>>>>>>>>$$%%$***########--------........",
"                ........>>>>>>>>$$$$****########-------->>>>>>>>$%$$$$**########>>>>>>>>>>>>>>>>$%%%$***########--------........",
"                ........>>>>>>>>$$$$%%**########-------->>>>>>>>%%%%$***########>>>>>>>>>>>>>>>>$$%%%%**########--------........",
"                ........>>>>>>>>$$$$%%$$########-------->>>>>>>>%%%%$$**########>>>>>>>>>>>>>>>>$$%%%%**########--------........",
"                ........>>>>>>>>**$$%%%%########-------->>>>>>>>$$%%$$$$########>>>>>>>>>>>>>>>>$$$$$$$*########--------........",
"                ........>>>>>>>>***$%%%%########-------->>>>>>>>**%%$$$$########>>>>>>>>>>>>>>>>$$*$$$$$########--------........",
"                ........>>>>>>>>**$$$$%$########-------->>>>>>>>****$$$$########>>>>>>>>>>>>>>>>****$$$$########--------........",
"                ........>>>>>>>>**$$$$$$########-------->>>>>>>>*****$$$########>>>>>>>>>>>>>>>>****$$$$########--------........",
"                ........<<<<<<<<-------->>>>>>>>$$%%$***########1111111122222222222222222222222211111111<<<<<<<<<<<<<<<<........",
"                ........<<<<<<<<-------->>>>>>>>$%%%$***########1111111122222222222222222222222211111111<<<<<<<<<<<<<<<<........",
"                ........<<<<<<<<-------->>>>>>>>$$%%%%**########1111111122222222222222222222222211111111<<<<<<<<<<<<<<<<........",
"                ........<<<<<<<<-------->>>>>>>>$$%%%%**########1111111122222222222222222222222211111111<<<<<<<<<<<<<<<<........",
"                ........<<<<<<<<-------->>>>>>>>$$$$$$$*########1111111122222222222222222222222211111111<<<<<<<<<<<<<<<<........",
"                ........<<<<<<<<-------->>>>>>>>$$*$$$$$########1111111122222222222222222222222211111111<<<<<<<<<<<<<<<<........",
"                ........<<<<<<<<-------->>>>>>>>****$$$$########1111111122222222222222222222222211111111<<<<<<<<<<<<<<<<........",
"                ........<<<<<<<<-------->>>>>>>>****$$$$########1111111122222222222222222222222211111111<<<<<<<<<<<<<<<<........",
"                ........>>>>>>>>$$%%$***########>>>>>>>>>>>>>>>>########111111111111111122222222$$$$$$$$########<<<<<<<<........",
"                ........>>>>>>>>$%%%$***########>>>>>>>>>>>>>>>>########111111111111111122222222$$$$$$$$########<<<<<<<<........",
"                ........>>>>>>>>$$%%%%**########>>>>>>>>>>>>>>>>########111111111111111122222222$$$$$$$$########<<<<<<<<........",
"                ........>>>>>>>>$$%%%%**########>>>>>>>>>>>>>>>>########111111111111111122222222$$$$$$$$########<<<<<<<<........",
"                ........>>>>>>>>$$$$$$$*########>>>>>>>>>>>>>>>>########111111111111111122222222$$$$$$$$########<<<<<<<<........",
"                ........>>>>>>>>$$*$$$$$########>>>>>>>>>>>>>>>>########111111111111111122222222$$$$$$$$########<<<<<<<<........",
"                ........>>>>>>>>****$$$$########>>>>>>>>>>>>>>>>########111111111111111122222222$$$$$$$$########<<<<<<<<........",
"                ........>>>>>>>>****$$$$########>>>>>>>>>>>>>>>>########111111111111111122222222$$$$$$$$########<<<<<<<<........",
"        ........XXXXXXXX;;;;;;;;--------<<<<<<<<$$%%$***########--------11111111>>>>>>>>11111111>>>>>>>>>>>>>>>>********........",
"        ........XXXXXXXX;;;;;;;;--------<<<<<<<<$%%%$***########--------11111111>>>>>>>>11111111>>>>>>>>>>>>>>>>********........",
"        ........XXXXXXXX;;;;;;;;--------<<<<<<<<$$%%%%**########--------11111111>>>>>>>>11111111>>>>>>>>>>>>>>>>********........",
"        ........XXXXXXXX;;;;;;;;--------<<<<<<<<$$%%%%**########--------11111111>>>>>>>>11111111>>>>>>>>>>>>>>>>********........",
"        ........XXXXXXXX;;;;;;;;--------<<<<<<<<$$$$$$$*########--------11111111>>>>>>>>11111111>>>>>>>>>>>>>>>>********........",
"        ........XXXXXXXX;;;;;;;;--------<<<<<<<<$$*$$$$$########--------11111111>>>>>>>>11111111>>>>>>>>>>>>>>>>********........",
"        ........XXXXXXXX;;;;;;;;--------<<<<<<<<****$$$$########--------11111111>>>>>>>>11111111>>>>>>>>>>>>>>>>********........",
"        ........XXXXXXXX;;;;;;;;--------<<<<<<<<****$$$$########--------11111111>>>>>>>>11111111>>>>>>>>>>>>>>>>********........",
"........########++++++++$$$*********************------------------------<<<<<<<<-------->>>>>>>>****************;;;;;;;;........",
"........########++++++++$$$$********************------------------------<<<<<<<<-------->>>>>>>>****************;;;;;;;;........",
"........########++++++++$$$$$$******************------------------------<<<<<<<<-------->>>>>>>>****************;;;;;;;;........",
"........########++++++++$$$$$$$$****************------------------------<<<<<<<<-------->>>>>>>>****************;;;;;;;;........",
"........########++++++++$$$$$$$$****************------------------------<<<<<<<<-------->>>>>>>>****************;;;;;;;;........",
"........########++++++++$$$$$$$$****************------------------------<<<<<<<<-------->>>>>>>>****************;;;;;;;;........",
"........########++++++++$$****$*****************------------------------<<<<<<<<-------->>>>>>>>****************;;;;;;;;........",
"........########++++++++$$**********************------------------------<<<<<<<<-------->>>>>>>>****************;;;;;;;;........",
"........>>>>>>>>########++++++++********;;;;;;;;****************--------<<<<<<<<****************;;;;;;;;;;;;;;;;........        ",
"........>>>>>>>>########++++++++********;;;;;;;;****************--------<<<<<<<<****************;;;;;;;;;;;;;;;;........        ",
"........>>>>>>>>########++++++++********;;;;;;;;****************--------<<<<<<<<****************;;;;;;;;;;;;;;;;........        ",
"........>>>>>>>>########++++++++********;;;;;;;;****************--------<<<<<<<<****************;;;;;;;;;;;;;;;;........        ",
"........>>>>>>>>########++++++++********;;;;;;;;****************--------<<<<<<<<****************;;;;;;;;;;;;;;;;........        ",
"........>>>>>>>>########++++++++********;;;;;;;;****************--------<<<<<<<<****************;;;;;;;;;;;;;;;;........        ",
"........>>>>>>>>########++++++++********;;;;;;;;****************--------<<<<<<<<****************;;;;;;;;;;;;;;;;........        ",
"........>>>>>>>>########++++++++********;;;;;;;;****************--------<<<<<<<<****************;;;;;;;;;;;;;;;;........        ",
"........--------$$$$******%%%$$$########ooooOOOo;;;;;;;;;;;;;;;;########<<<<<<<<********;;;;;;;;XXXXXXXX........                ",
"........--------$$$$****%$%%$$$$########ooooooOo;;;;;;;;;;;;;;;;########<<<<<<<<********;;;;;;;;XXXXXXXX........                ",
"........--------$$$$$*$$%%%%$$$$########oooooooo;;;;;;;;;;;;;;;;########<<<<<<<<********;;;;;;;;XXXXXXXX........                ",
"........--------*$$$$$$$%%%%*$$$########oooooooo;;;;;;;;;;;;;;;;########<<<<<<<<********;;;;;;;;XXXXXXXX........                ",
"........--------**%%%%$$$$%%****########oooooooo;;;;;;;;;;;;;;;;########<<<<<<<<********;;;;;;;;XXXXXXXX........                ",
"........--------**%%%%$$$%%%****########oooooooo;;;;;;;;;;;;;;;;########<<<<<<<<********;;;;;;;;XXXXXXXX........                ",
"........--------***$%%%$$$%%%%**########oooooOoo;;;;;;;;;;;;;;;;########<<<<<<<<********;;;;;;;;XXXXXXXX........                ",
"........--------***$%%$$$$%%%%%$########ooooOoOo;;;;;;;;;;;;;;;;########<<<<<<<<********;;;;;;;;XXXXXXXX........                ",
"........********--------<<<<<<<<$%%%%%$$$$%%$***########oooooooo11111111++++++++########OO+ooooo++++++++........                ",
"........********--------<<<<<<<<**%%%%$$$%%%$***########oooooooo11111111++++++++########OO++oooO++++++++........                ",
"........********--------<<<<<<<<****%%%$$$%%%%**########oooooooo11111111++++++++########O+++oooo++++++++........                ",
"........********--------<<<<<<<<****%%$$$$%%%%**########oooooooo11111111++++++++########O+++oooo++++++++........                ",
"........********--------<<<<<<<<$$$*%%%%$$$$$$$*########oooooooo11111111++++++++########oooooooo++++++++........                ",
"........********--------<<<<<<<<$$$$%%%%$$*$$$$$########oooooooo11111111++++++++########OoooooOo++++++++........                ",
"........********--------<<<<<<<<$$$$%%$%****$$$$########oooooooo11111111++++++oo########OOooooOO++++++++........                ",
"........********--------<<<<<<<<$$$%%%******$$$$########oooooooo11111111++++++oo########oooooooO++++++++........                ",
"........oooooooo****************-------->>>>>>>>>>>>>>>>11111111<<<<<<<<----------------****************........                ",
"........oooooooo****************-------->>>>>>>>>>>>>>>>11111111<<<<<<<<----------------****************........                ",
"........oooooooo****************-------->>>>>>>>>>>>>>>>11111111<<<<<<<<----------------****************........                ",
"........oooooooo****************-------->>>>>>>>>>>>>>>>11111111<<<<<<<<----------------****************........                ",
"........oooooooo****************-------->>>>>>>>>>>>>>>>11111111<<<<<<<<----------------****************........                ",
"........oooooooo****************-------->>>>>>>>>>>>>>>>11111111<<<<<<<<----------------****************........                ",
"........oooooooo****************-------->>>>>>>>>>>>>>>>11111111<<<<<<<<----------------****************........                ",
"........oooooooo****************-------->>>>>>>>>>>>>>>>11111111<<<<<<<<----------------****************........                ",
"        ........oooooooo********************************--------********************************........                        ",
"        ........oOoooooO********************************--------********************************........                        ",
"        ........OOoooooO********************************--------********************************........                        ",
"        ........ooooooOO********************************--------********************************........                        ",
"        ........oooooooo********************************--------********************************........                        ",
"        ........oooooooo********************************--------********************************........                        ",
"        ........oooooooo********************************--------********************************........                        ",
"        ........oooooooo********************************--------********************************........                        ",
"                ................++oooooo****************----------------oooooooo................                                ",
"                ................++oooooo****************----------------oooooooo................                                ",
"                ................oooooooo****************----------------oooooooo................                                ",
"                ................oooooooo****************----------------oooooooo................                                ",
"                ................oooooooo****************----------------oooooooo................                                ",
"                ................oooooooo****************----------------oooooooo................                                ",
"                ................oooooooo****************----------------oooooooo................                                ",
"                ................oooooooo****************----------------oooooooo................                                ",
"                                ................................................                                                ",
"                                ................................................                                                ",
"                                ................................................                                                ",
"                                ................................................                                                ",
"                                ................................................                                                ",
"                                ................................................                                                ",
"                                ................................................                                                ",
"                                ................................................                                                "
};
