/* XPM */
static char *waffles_64[] = {
/* columns rows colors chars-per-pixel */
"64 64 21 1 ",
"  c None",
". c #170625",
"X c #A43E0E",
"o c #CE4F0E",
"O c #CF4F0E",
"+ c #CE500E",
"@ c #E9790E",
"# c #E97A0E",
"$ c #ED9828",
"% c #EF9928",
"& c #EF9929",
"* c #F09A2B",
"= c #F19B2B",
"- c #FFC237",
"; c #FAB440",
": c #FBB642",
"> c #FFDF59",
", c #FFDE5B",
"< c #FFE05B",
"1 c #FFFE62",
"2 c #FFFEBD",
/* pixels */
"                                                                ",
"                                                                ",
"                                                                ",
"                                                                ",
"                        ........................                ",
"                        ........................                ",
"                        ........................                ",
"                        ........................                ",
"                ........---->>>><<<<>>>>>>>>----........        ",
"                ........---->>>><<<<>>>>>>>>----........        ",
"                ........---->>>><<<<>>>>>>>>----........        ",
"                ........---->>>><<<<>>>>>>>>----........        ",
"            ....---->>>>$$$$####--------$$$$####<<<<----....    ",
"            ....---->>>>$$$$####--------$$$$####<<<<----....    ",
"            ....---->>>>$$$$####--------$$$$####<<<<----....    ",
"            ....---->>>>$$$$####--------*$$$####<<<<----....    ",
"        ....>>>>$$$$####---->>>>$$$*####>>>>>>>>$$$$####----....",
"        ....>>>>$$$$####---->>>>$$$$####>>>>>>>>$$$$####----....",
"        ....>>>>$$$$####---->>>>$$$$####>>>>>>>>$$$$####----....",
"        ....>>>>*$$$####---->>>>$$$$####>>>>>>>>*$$$####----....",
"        ....<<<<---->>>>$$$$####11112222222222221111<<<<<<<<....",
"        ....<<<<---->>>>$$$$####11112222222222221111<<<<<<<<....",
"        ....<<<<---->>>>$$$$####11112222222222221111<<<<<<<<....",
"        ....<<<<---->>>>*$$$####11112222222222221111<<<<<<<<....",
"        ....>>>>$$$$####>>>>>>>>####111111112222$$$$####<<<<....",
"        ....>>>>$$$$####>>>>>>>>####111111112222$$$$####<<<<....",
"        ....>>>>$$$$####>>>>>>>>####111111112222$$$$####<<<<....",
"        ....>>>>*$$$####>>>>>>>>####111111112222$$$$####<<<<....",
"    ....XXXX;;;;----<<<<$$$$####----1111>>>>1111>>>>>>>>****....",
"    ....XXXX;;;;----<<<<$$$$####----1111>>>>1111>>>>>>>>****....",
"    ....XXXX;;;;----<<<<$$$$####----1111>>>>1111>>>>>>>>****....",
"    ....XXXX;;;;----<<<<*$$$####----1111>>>>1111>>>>>>>>****....",
"....####++++$$$$********------------<<<<---->>>>********;;;;....",
"....####++++$$$$********------------<<<<---->>>>********;;;;....",
"....####++++$$$$********------------<<<<---->>>>********;;;;....",
"....####++++*$$$********------------<<<<---->>>>********;;;;....",
"....>>>>####++++****;;;;********----<<<<********;;;;;;;;....    ",
"....>>>>####++++****;;;;********----<<<<********;;;;;;;;....    ",
"....>>>>####++++****;;;;********----<<<<********;;;;;;;;....    ",
"....>>>>####++++****;;;;********----<<<<********;;;;;;;;....    ",
"....----$$******####oooo;;;;;;;;####<<<<****;;;;XXXX....        ",
"....----$$$$****####oooo;;;;;;;;####<<<<****;;;;XXXX....        ",
"....----$$$$%%*$####oooo;;;;;;;;####<<<<****;;;;XXXX....        ",
"....----$$$$%%%$####oooo;;;;;;;;####<<<<****;;;;XXXX....        ",
"....****----<<<<$$%%$$$$####oooo1111++++####++++++++....        ",
"....****----<<<<**%%$$$$####oooo1111++++####++++++++....        ",
"....****----<<<<****$$$$####oooo1111++++####oo++++++....        ",
"....****----<<<<*****$$$####oooo1111++++####oo++++++....        ",
"....oooo********---->>>>>>>>1111<<<<--------********....        ",
"....oooo********---->>>>>>>>1111<<<<--------********....        ",
"....oooo********---->>>>>>>>1111<<<<--------********....        ",
"....oooo********---->>>>>>>>1111<<<<--------********....        ",
"    ....oooo****************----****************....            ",
"    ....oooo****************----****************....            ",
"    ....oooo****************----****************....            ",
"    ....oooo****************----****************....            ",
"        ........oooo********--------oooo........                ",
"        ........oooo********--------oooo........                ",
"        ........oooo********--------oooo........                ",
"        ........oooo********--------oooo........                ",
"                ........................                        ",
"                ........................                        ",
"                ........................                        ",
"                ........................                        "
};
