/* XPM */
static char *_bab3e0242cd4b57d1c0eeb6456c6b97sm9VD4cEaY3KQSVy[] = {
/* columns rows colors chars-per-pixel */
"16 16 27 1 ",
"  c None",
". c #170625",
"X c #A43E0E",
"o c #CE4F0E",
"O c #CF4F0E",
"+ c #CE500E",
"@ c #E9790E",
"# c #E97A0E",
"$ c #EA7A0E",
"% c #ED9828",
"& c #ED9928",
"* c #EF9928",
"= c #EF9929",
"- c #F09A2B",
"; c #F09B2B",
": c #F19B2B",
"> c #FFC137",
", c #FFC237",
"< c #FAB440",
"1 c #FAB640",
"2 c #FBB642",
"3 c #FFDF59",
"4 c #FFDE5B",
"5 c #FFE05B",
"6 c #FFFE61",
"7 c #FFFE62",
"8 c #FFFEBD",
/* pixels */
"                ",
"      ......    ",
"    ..,3533,..  ",
"   .,4%#,,*@5,. ",
"  .3*@,4*@33*@,.",
"  .5,3*@7888755.",
"  .3*@34@778%@5.",
" .X<,5*@,73733-.",
".#+=:-,,,5,3-:<.",
".4#+-<-:,5::<<. ",
".,**@O<<@5-2X.  ",
".-,5**@o7+@O+.  ",
".o--,3375,,-:.  ",
" .O-::-,--:-.   ",
"  ..o--,,o..    ",
"    ......      "
};
