/* XPM */
static char *e19be0450e124de6afcef60b4848e8ef2DuBkYnjbX4Vf2wM[] = {
/* columns rows colors chars-per-pixel */
"16 16 19 1 ",
"  c None",
". c #170625",
"X c #7C2C2A",
"o c #8D120E",
"O c #9D200E",
"+ c #BB260E",
"@ c #D8370E",
"# c #91462E",
"$ c #B65533",
"% c #EC5C0E",
"& c #DF5A39",
"* c #AD6545",
"= c #A3716E",
"- c #FF892E",
"; c #E68639",
": c #F19B4F",
"> c #FFB65F",
", c #CA967C",
"< c #FCD1B4",
/* pixels */
"      ....      ",
"     .=*,#.     ",
"      .OO.      ",
"      .%<.      ",
"      .-&.      ",
"     .OOOO.     ",
"    .O+@&+O.    ",
"   .o+@%%<+o.   ",
"   .O;:>>:;O.   ",
"   .O;X$;$;O.   ",
"   .O;$XXX;O.   ",
"   .O;:X$X;O.   ",
"   .O;:>>:;O.   ",
"   .O+@%%&+O.   ",
"   .oO++++Oo.   ",
"    ........    "
};
