/* XPM */
static char *ef3e386034c340aaa501ef0133abf53btzU2NJwpTwz4vwpW[] = {
/* columns rows colors chars-per-pixel */
"16 16 18 1",
"  c None",
". c #170625",
"X c #2B1331",
"o c #231638",
"O c #281B3E",
"+ c #371532",
"@ c #49243D",
"# c #33254B",
"$ c #6E4156",
"% c #96002F",
"& c #BA0530",
"* c #E70E37",
"= c #FF2A52",
"- c #BE5E56",
"; c #CD7F67",
": c #BB9EBE",
"> c #E5A987",
", c #F7D3A4",
/* pixels */
"       &=       ",
"       %&       ",
"       &=       ",
"       &*       ",
"       ..       ",
"       oX       ",
"      .O@.      ",
"     .OoX$.     ",
"     .#.+:+     ",
"     ->>.$.     ",
"     ;>,>$.     ",
"     %&=,@.     ",
"     ;>,>@.     ",
"     -;>.+.     ",
"     .#..+.     ",
"     .OoX@.     "
};
